<?xml version="1.0" encoding="UTF-8" standalone="no"?>
<!-- Created with Inkscape (http://www.inkscape.org/) -->

<svg
   xmlns:dc="http://purl.org/dc/elements/1.1/"
   xmlns:cc="http://creativecommons.org/ns#"
   xmlns:rdf="http://www.w3.org/1999/02/22-rdf-syntax-ns#"
   xmlns:svg="http://www.w3.org/2000/svg"
   xmlns="http://www.w3.org/2000/svg"
   xmlns:sodipodi="http://sodipodi.sourceforge.net/DTD/sodipodi-0.dtd"
   xmlns:inkscape="http://www.inkscape.org/namespaces/inkscape"
   sodipodi:docname="automated-preprocessing-adaptive.svg"
   inkscape:version="0.92.5 (2060ec1f9f, 2020-04-08)"
   id="svg8"
   version="1.1"
   viewBox="0 0 210 297"
   height="297mm"
   width="210mm">
  <defs
     id="defs2">
    <marker
       inkscape:stockid="Arrow2Lend"
       orient="auto"
       refY="0.0"
       refX="0.0"
       id="marker5153"
       style="overflow:visible;"
       inkscape:isstock="true">
      <path
         id="path5151"
         style="fill-rule:evenodd;stroke-width:0.625;stroke-linejoin:round;stroke:#000000;stroke-opacity:1;fill:#000000;fill-opacity:1"
         d="M 8.7185878,4.0337352 L -2.2072895,0.016013256 L 8.7185884,-4.0017078 C 6.9730900,-1.6296469 6.9831476,1.6157441 8.7185878,4.0337352 z "
         transform="scale(1.1) rotate(180) translate(1,0)" />
    </marker>
    <marker
       inkscape:stockid="Arrow2Lend"
       orient="auto"
       refY="0.0"
       refX="0.0"
       id="marker4981"
       style="overflow:visible;"
       inkscape:isstock="true">
      <path
         id="path4979"
         style="fill-rule:evenodd;stroke-width:0.625;stroke-linejoin:round;stroke:#000000;stroke-opacity:1;fill:#000000;fill-opacity:1"
         d="M 8.7185878,4.0337352 L -2.2072895,0.016013256 L 8.7185884,-4.0017078 C 6.9730900,-1.6296469 6.9831476,1.6157441 8.7185878,4.0337352 z "
         transform="scale(1.1) rotate(180) translate(1,0)" />
    </marker>
    <marker
       inkscape:isstock="true"
       style="overflow:visible;"
       id="marker4809"
       refX="0.0"
       refY="0.0"
       orient="auto"
       inkscape:stockid="Arrow2Lend">
      <path
         transform="scale(1.1) rotate(180) translate(1,0)"
         d="M 8.7185878,4.0337352 L -2.2072895,0.016013256 L 8.7185884,-4.0017078 C 6.9730900,-1.6296469 6.9831476,1.6157441 8.7185878,4.0337352 z "
         style="fill-rule:evenodd;stroke-width:0.625;stroke-linejoin:round;stroke:#000000;stroke-opacity:1;fill:#000000;fill-opacity:1"
         id="path4807" />
    </marker>
    <marker
       inkscape:isstock="true"
       style="overflow:visible;"
       id="marker4661"
       refX="0.0"
       refY="0.0"
       orient="auto"
       inkscape:stockid="Arrow2Lend">
      <path
         transform="scale(1.1) rotate(180) translate(1,0)"
         d="M 8.7185878,4.0337352 L -2.2072895,0.016013256 L 8.7185884,-4.0017078 C 6.9730900,-1.6296469 6.9831476,1.6157441 8.7185878,4.0337352 z "
         style="fill-rule:evenodd;stroke-width:0.625;stroke-linejoin:round;stroke:#000000;stroke-opacity:1;fill:#000000;fill-opacity:1"
         id="path4659" />
    </marker>
    <marker
       inkscape:isstock="true"
       style="overflow:visible;"
       id="marker4519"
       refX="0.0"
       refY="0.0"
       orient="auto"
       inkscape:stockid="Arrow2Lend">
      <path
         transform="scale(1.1) rotate(180) translate(1,0)"
         d="M 8.7185878,4.0337352 L -2.2072895,0.016013256 L 8.7185884,-4.0017078 C 6.9730900,-1.6296469 6.9831476,1.6157441 8.7185878,4.0337352 z "
         style="fill-rule:evenodd;stroke-width:0.625;stroke-linejoin:round;stroke:#000000;stroke-opacity:1;fill:#000000;fill-opacity:1"
         id="path4517" />
    </marker>
    <marker
       inkscape:isstock="true"
       style="overflow:visible;"
       id="marker4383"
       refX="0.0"
       refY="0.0"
       orient="auto"
       inkscape:stockid="Arrow2Lend">
      <path
         transform="scale(1.1) rotate(180) translate(1,0)"
         d="M 8.7185878,4.0337352 L -2.2072895,0.016013256 L 8.7185884,-4.0017078 C 6.9730900,-1.6296469 6.9831476,1.6157441 8.7185878,4.0337352 z "
         style="fill-rule:evenodd;stroke-width:0.625;stroke-linejoin:round;stroke:#000000;stroke-opacity:1;fill:#000000;fill-opacity:1"
         id="path4381" />
    </marker>
    <marker
       inkscape:isstock="true"
       style="overflow:visible;"
       id="marker4253"
       refX="0.0"
       refY="0.0"
       orient="auto"
       inkscape:stockid="Arrow2Lend">
      <path
         transform="scale(1.1) rotate(180) translate(1,0)"
         d="M 8.7185878,4.0337352 L -2.2072895,0.016013256 L 8.7185884,-4.0017078 C 6.9730900,-1.6296469 6.9831476,1.6157441 8.7185878,4.0337352 z "
         style="fill-rule:evenodd;stroke-width:0.625;stroke-linejoin:round;stroke:#000000;stroke-opacity:1;fill:#000000;fill-opacity:1"
         id="path4251" />
    </marker>
    <marker
       inkscape:isstock="true"
       style="overflow:visible;"
       id="marker4129"
       refX="0.0"
       refY="0.0"
       orient="auto"
       inkscape:stockid="Arrow2Lend">
      <path
         transform="scale(1.1) rotate(180) translate(1,0)"
         d="M 8.7185878,4.0337352 L -2.2072895,0.016013256 L 8.7185884,-4.0017078 C 6.9730900,-1.6296469 6.9831476,1.6157441 8.7185878,4.0337352 z "
         style="fill-rule:evenodd;stroke-width:0.625;stroke-linejoin:round;stroke:#000000;stroke-opacity:1;fill:#000000;fill-opacity:1"
         id="path4127" />
    </marker>
    <marker
       inkscape:isstock="true"
       style="overflow:visible;"
       id="marker3899"
       refX="0.0"
       refY="0.0"
       orient="auto"
       inkscape:stockid="Arrow2Lend">
      <path
         transform="scale(1.1) rotate(180) translate(1,0)"
         d="M 8.7185878,4.0337352 L -2.2072895,0.016013256 L 8.7185884,-4.0017078 C 6.9730900,-1.6296469 6.9831476,1.6157441 8.7185878,4.0337352 z "
         style="fill-rule:evenodd;stroke-width:0.625;stroke-linejoin:round;stroke:#000000;stroke-opacity:1;fill:#000000;fill-opacity:1"
         id="path3897" />
    </marker>
    <marker
       inkscape:isstock="true"
       style="overflow:visible;"
       id="marker3693"
       refX="0.0"
       refY="0.0"
       orient="auto"
       inkscape:stockid="Arrow2Lend">
      <path
         transform="scale(1.1) rotate(180) translate(1,0)"
         d="M 8.7185878,4.0337352 L -2.2072895,0.016013256 L 8.7185884,-4.0017078 C 6.9730900,-1.6296469 6.9831476,1.6157441 8.7185878,4.0337352 z "
         style="fill-rule:evenodd;stroke-width:0.625;stroke-linejoin:round;stroke:#000000;stroke-opacity:1;fill:#000000;fill-opacity:1"
         id="path3691" />
    </marker>
    <marker
       inkscape:isstock="true"
       style="overflow:visible;"
       id="marker3599"
       refX="0.0"
       refY="0.0"
       orient="auto"
       inkscape:stockid="Arrow2Lend">
      <path
         transform="scale(1.1) rotate(180) translate(1,0)"
         d="M 8.7185878,4.0337352 L -2.2072895,0.016013256 L 8.7185884,-4.0017078 C 6.9730900,-1.6296469 6.9831476,1.6157441 8.7185878,4.0337352 z "
         style="fill-rule:evenodd;stroke-width:0.625;stroke-linejoin:round;stroke:#000000;stroke-opacity:1;fill:#000000;fill-opacity:1"
         id="path3597" />
    </marker>
    <marker
       inkscape:stockid="Arrow1Lend"
       orient="auto"
       refY="0.0"
       refX="0.0"
       id="marker1785"
       style="overflow:visible;"
       inkscape:isstock="true">
      <path
         id="path1783"
         d="M 0.0,0.0 L 5.0,-5.0 L -12.5,0.0 L 5.0,5.0 L 0.0,0.0 z "
         style="fill-rule:evenodd;stroke:#000000;stroke-width:1pt;stroke-opacity:1;fill:#000000;fill-opacity:1"
         transform="scale(0.8) rotate(180) translate(12.5,0)" />
    </marker>
    <marker
       inkscape:stockid="Arrow1Lend"
       orient="auto"
       refY="0.0"
       refX="0.0"
       id="marker1781"
       style="overflow:visible;"
       inkscape:isstock="true">
      <path
         id="path1779"
         d="M 0.0,0.0 L 5.0,-5.0 L -12.5,0.0 L 5.0,5.0 L 0.0,0.0 z "
         style="fill-rule:evenodd;stroke:#000000;stroke-width:1pt;stroke-opacity:1;fill:#000000;fill-opacity:1"
         transform="scale(0.8) rotate(180) translate(12.5,0)" />
    </marker>
    <marker
       inkscape:stockid="Arrow1Lend"
       orient="auto"
       refY="0.0"
       refX="0.0"
       id="marker1777"
       style="overflow:visible;"
       inkscape:isstock="true">
      <path
         id="path1775"
         d="M 0.0,0.0 L 5.0,-5.0 L -12.5,0.0 L 5.0,5.0 L 0.0,0.0 z "
         style="fill-rule:evenodd;stroke:#000000;stroke-width:1pt;stroke-opacity:1;fill:#000000;fill-opacity:1"
         transform="scale(0.8) rotate(180) translate(12.5,0)" />
    </marker>
    <marker
       inkscape:stockid="Arrow1Lend"
       orient="auto"
       refY="0.0"
       refX="0.0"
       id="marker1773"
       style="overflow:visible;"
       inkscape:isstock="true">
      <path
         id="path1771"
         d="M 0.0,0.0 L 5.0,-5.0 L -12.5,0.0 L 5.0,5.0 L 0.0,0.0 z "
         style="fill-rule:evenodd;stroke:#000000;stroke-width:1pt;stroke-opacity:1;fill:#000000;fill-opacity:1"
         transform="scale(0.8) rotate(180) translate(12.5,0)" />
    </marker>
    <marker
       inkscape:stockid="Arrow1Lend"
       orient="auto"
       refY="0.0"
       refX="0.0"
       id="marker1769"
       style="overflow:visible;"
       inkscape:isstock="true">
      <path
         id="path1767"
         d="M 0.0,0.0 L 5.0,-5.0 L -12.5,0.0 L 5.0,5.0 L 0.0,0.0 z "
         style="fill-rule:evenodd;stroke:#000000;stroke-width:1pt;stroke-opacity:1;fill:#000000;fill-opacity:1"
         transform="scale(0.8) rotate(180) translate(12.5,0)" />
    </marker>
    <marker
       inkscape:stockid="Arrow1Lend"
       orient="auto"
       refY="0.0"
       refX="0.0"
       id="marker1765"
       style="overflow:visible;"
       inkscape:isstock="true">
      <path
         id="path1763"
         d="M 0.0,0.0 L 5.0,-5.0 L -12.5,0.0 L 5.0,5.0 L 0.0,0.0 z "
         style="fill-rule:evenodd;stroke:#000000;stroke-width:1pt;stroke-opacity:1;fill:#000000;fill-opacity:1"
         transform="scale(0.8) rotate(180) translate(12.5,0)" />
    </marker>
    <marker
       inkscape:stockid="Arrow2Lend"
       orient="auto"
       refY="0.0"
       refX="0.0"
       id="Arrow2Lend"
       style="overflow:visible;"
       inkscape:isstock="true">
      <path
         id="path1517"
         style="fill-rule:evenodd;stroke-width:0.625;stroke-linejoin:round;stroke:#000000;stroke-opacity:1;fill:#000000;fill-opacity:1"
         d="M 8.7185878,4.0337352 L -2.2072895,0.016013256 L 8.7185884,-4.0017078 C 6.9730900,-1.6296469 6.9831476,1.6157441 8.7185878,4.0337352 z "
         transform="scale(1.1) rotate(180) translate(1,0)" />
    </marker>
    <marker
       inkscape:stockid="Arrow1Lend"
       orient="auto"
       refY="0.0"
       refX="0.0"
       id="marker1759"
       style="overflow:visible;"
       inkscape:isstock="true">
      <path
         id="path1499"
         d="M 0.0,0.0 L 5.0,-5.0 L -12.5,0.0 L 5.0,5.0 L 0.0,0.0 z "
         style="fill-rule:evenodd;stroke:#000000;stroke-width:1pt;stroke-opacity:1;fill:#000000;fill-opacity:1"
         transform="scale(0.8) rotate(180) translate(12.5,0)" />
    </marker>
    <marker
       inkscape:stockid="Arrow1Lend"
       orient="auto"
       refY="0.0"
       refX="0.0"
       id="marker1402"
       style="overflow:visible;"
       inkscape:isstock="true">
      <path
         id="path1400"
         d="M 0.0,0.0 L 5.0,-5.0 L -12.5,0.0 L 5.0,5.0 L 0.0,0.0 z "
         style="fill-rule:evenodd;stroke:#000000;stroke-width:1pt;stroke-opacity:1;fill:#000000;fill-opacity:1"
         transform="scale(0.8) rotate(180) translate(12.5,0)" />
    </marker>
    <marker
       inkscape:stockid="Arrow1Lend"
       orient="auto"
       refY="0.0"
       refX="0.0"
       id="Arrow1Lend"
       style="overflow:visible;"
       inkscape:isstock="true">
      <path
         id="path1113"
         d="M 0.0,0.0 L 5.0,-5.0 L -12.5,0.0 L 5.0,5.0 L 0.0,0.0 z "
         style="fill-rule:evenodd;stroke:#000000;stroke-width:1pt;stroke-opacity:1;fill:#000000;fill-opacity:1"
         transform="scale(0.8) rotate(180) translate(12.5,0)" />
    </marker>
    <marker
       inkscape:stockid="Arrow1Lend"
       orient="auto"
       refY="0"
       refX="0"
       id="marker1402-9"
       style="overflow:visible"
       inkscape:isstock="true">
      <path
         inkscape:connector-curvature="0"
         id="path1400-3"
         d="M 0,0 5,-5 -12.5,0 5,5 Z"
         style="fill:#000000;fill-opacity:1;fill-rule:evenodd;stroke:#000000;stroke-width:1.00000003pt;stroke-opacity:1"
         transform="matrix(-0.8,0,0,-0.8,-10,0)" />
    </marker>
    <marker
       inkscape:stockid="Arrow1Lend"
       orient="auto"
       refY="0"
       refX="0"
       id="Arrow1Lend-8"
       style="overflow:visible"
       inkscape:isstock="true">
      <path
         inkscape:connector-curvature="0"
         id="path1113-9"
         d="M 0,0 5,-5 -12.5,0 5,5 Z"
         style="fill:#000000;fill-opacity:1;fill-rule:evenodd;stroke:#000000;stroke-width:1.00000003pt;stroke-opacity:1"
         transform="matrix(-0.8,0,0,-0.8,-10,0)" />
    </marker>
  </defs>
  <sodipodi:namedview
     id="base"
     pagecolor="#ffffff"
     bordercolor="#666666"
     borderopacity="1.0"
     inkscape:pageopacity="0.0"
     inkscape:pageshadow="2"
     inkscape:zoom="0.98994949"
     inkscape:cx="517.70866"
     inkscape:cy="805.86087"
     inkscape:document-units="mm"
     inkscape:current-layer="layer1"
     showgrid="false"
     inkscape:window-width="1920"
     inkscape:window-height="1018"
     inkscape:window-x="0"
     inkscape:window-y="32"
     inkscape:window-maximized="1" />
  <metadata
     id="metadata5">
    <rdf:RDF>
      <cc:Work
         rdf:about="">
        <dc:format>image/svg+xml</dc:format>
        <dc:type
           rdf:resource="http://purl.org/dc/dcmitype/StillImage" />
        <dc:title />
      </cc:Work>
    </rdf:RDF>
  </metadata>
  <g
     inkscape:groupmode="layer"
     id="layer3"
     inkscape:label="Layer 3" />
  <g
     inkscape:label="Layer 1"
     inkscape:groupmode="layer"
     id="layer1">
    <text
       xml:space="preserve"
       style="font-style:normal;font-weight:normal;font-size:10.58333302px;line-height:1.25;font-family:sans-serif;letter-spacing:0px;word-spacing:0px;fill:#000000;fill-opacity:1;stroke:none;stroke-width:0.26458332"
       x="126.11452"
       y="24.372057"
       id="text888-8"><tspan
         sodipodi:role="line"
         x="126.11452"
         y="33.735825"
         style="font-style:normal;font-variant:normal;font-weight:normal;font-stretch:normal;font-size:5.64444447px;font-family:'TeX Gyre Adventor';-inkscape-font-specification:'TeX Gyre Adventor, Normal';font-variant-ligatures:normal;font-variant-caps:normal;font-variant-numeric:normal;font-feature-settings:normal;text-align:center;word-spacing:0px;writing-mode:lr-tb;text-anchor:middle;stroke-width:0.26458332"
         id="tspan890-6"
         rotate="0" /></text>
    <rect
       style="fill:#ffd5d5;stroke:#6f0202;stroke-width:0.22874217;stroke-miterlimit:4;stroke-dasharray:none;stroke-opacity:1"
       id="rect966-3"
       width="18.372591"
       height="8.8212309"
       x="20.758411"
       y="45.919617"
       ry="1.5463452" />
    <rect
       style="fill:#ffd5d5;stroke:#6f0202;stroke-width:0.201;stroke-miterlimit:4;stroke-dasharray:none;stroke-opacity:1"
       id="rect2964"
       width="19.879379"
       height="6.8047681"
       x="64.363258"
       y="47.073547"
       ry="1.1928632" />
    <rect
       style="fill:none;stroke:#000000;stroke-width:0.33404249;stroke-miterlimit:4;stroke-dasharray:0.3340425, 0.3340425;stroke-dashoffset:0;stroke-opacity:1"
       id="rect5977"
       width="161.78668"
       height="48.940468"
       x="18.399754"
       y="31.701906"
       ry="6.3835392" />
    <rect
       ry="1.1928632"
       y="47.152817"
       x="92.114639"
       height="6.8047681"
       width="19.879379"
       id="rect1151"
       style="fill:#ffd5d5;stroke:#6f0202;stroke-width:0.201;stroke-miterlimit:4;stroke-dasharray:none;stroke-opacity:1" />
    <rect
       style="fill:#ffd5d5;stroke:#6f0202;stroke-width:0.25132269;stroke-miterlimit:4;stroke-dasharray:none;stroke-opacity:1"
       id="rect1170"
       width="19.859995"
       height="10.648987"
       x="136.09277"
       y="44.702072"
       ry="1.8667476" />
    <rect
       y="49.891212"
       x="2.3229592"
       height="2.068357"
       width="13.650867"
       id="rect1174"
       style="fill:#f2f2f2;stroke:#000000;stroke-width:0.12;stroke-opacity:1;stroke-miterlimit:4;stroke-dasharray:none" />
    <rect
       style="fill:#ffccaa;stroke:#775200;stroke-width:0.2;stroke-opacity:1;stroke-miterlimit:4;stroke-dasharray:none"
       id="rect884-5-2"
       width="27.008968"
       height="8.2485657"
       x="182.19577"
       y="46.520821"
       ry="1.8602008" />
    <rect
       style="fill:#f2f2f2;stroke:#000000;stroke-width:0.12;stroke-miterlimit:4;stroke-dasharray:none;stroke-opacity:1"
       id="rect1201"
       width="13.650867"
       height="2.068357"
       x="2.3229592"
       y="45.657875" />
    <rect
       y="41.424538"
       x="2.3229592"
       height="2.068357"
       width="13.650867"
       id="rect1203"
       style="fill:#f2f2f2;stroke:#000000;stroke-width:0.12;stroke-miterlimit:4;stroke-dasharray:none;stroke-opacity:1" />
    <rect
       y="54.12455"
       x="2.3229592"
       height="2.068357"
       width="13.650867"
       id="rect1207"
       style="fill:#f2f2f2;stroke:#000000;stroke-width:0.12;stroke-miterlimit:4;stroke-dasharray:none;stroke-opacity:1" />
    <rect
       style="fill:#f2f2f2;stroke:#000000;stroke-width:0.12;stroke-miterlimit:4;stroke-dasharray:none;stroke-opacity:1"
       id="rect1209"
       width="13.650867"
       height="2.068357"
       x="2.3229592"
       y="58.357887" />
    <rect
       style="fill:#fff2cc;stroke:#a18325;stroke-width:0.12;stroke-miterlimit:4;stroke-dasharray:none;stroke-opacity:1;fill-opacity:1"
       id="rect1241"
       width="13.650867"
       height="2.068357"
       x="44.656296"
       y="49.891212" />
    <rect
       y="45.657875"
       x="44.656296"
       height="2.068357"
       width="13.650867"
       id="rect1243"
       style="fill:#fff2cc;stroke:#a18325;stroke-width:0.12;stroke-miterlimit:4;stroke-dasharray:none;stroke-opacity:1;fill-opacity:1" />
    <rect
       style="fill:#fff2cc;stroke:#a18325;stroke-width:0.12;stroke-miterlimit:4;stroke-dasharray:none;stroke-opacity:1;fill-opacity:1"
       id="rect1245"
       width="13.650867"
       height="2.068357"
       x="44.656296"
       y="41.424538" />
    <rect
       style="fill:#fff2cc;stroke:#a18325;stroke-width:0.12;stroke-miterlimit:4;stroke-dasharray:none;stroke-opacity:1;fill-opacity:1"
       id="rect1247"
       width="13.650867"
       height="2.068357"
       x="44.656296"
       y="54.12455" />
    <rect
       y="58.357887"
       x="44.656296"
       height="2.068357"
       width="13.650867"
       id="rect1249"
       style="fill:#fff2cc;stroke:#a18325;stroke-width:0.12;stroke-miterlimit:4;stroke-dasharray:none;stroke-opacity:1;fill-opacity:1" />
    <rect
       y="49.891212"
       x="117.1521"
       height="2.068357"
       width="13.650867"
       id="rect1251"
       style="fill:#dae8fc;stroke:#3c5e90;stroke-width:0.12;stroke-miterlimit:4;stroke-dasharray:none;stroke-opacity:1;fill-opacity:1" />
    <rect
       style="fill:#dae8fc;stroke:#3c5e90;stroke-width:0.12;stroke-miterlimit:4;stroke-dasharray:none;stroke-opacity:1;fill-opacity:1"
       id="rect1253"
       width="13.650867"
       height="2.068357"
       x="117.1521"
       y="45.657875" />
    <rect
       y="41.424538"
       x="117.1521"
       height="2.068357"
       width="13.650867"
       id="rect1255"
       style="fill:#dae8fc;stroke:#3c5e90;stroke-width:0.12;stroke-miterlimit:4;stroke-dasharray:none;stroke-opacity:1;fill-opacity:1" />
    <rect
       y="54.12455"
       x="117.1521"
       height="2.068357"
       width="13.650867"
       id="rect1257"
       style="fill:#dae8fc;stroke:#3c5e90;stroke-width:0.12;stroke-miterlimit:4;stroke-dasharray:none;stroke-opacity:1;fill-opacity:1" />
    <rect
       style="fill:#dae8fc;stroke:#3c5e90;stroke-width:0.12;stroke-miterlimit:4;stroke-dasharray:none;stroke-opacity:1;fill-opacity:1"
       id="rect1259"
       width="13.650867"
       height="2.068357"
       x="117.1521"
       y="58.357887" />
    <rect
       style="fill:#d5e8d4;stroke:#537a3e;stroke-width:0.12;stroke-miterlimit:4;stroke-dasharray:none;stroke-opacity:1;fill-opacity:1"
       id="rect1261"
       width="13.650867"
       height="2.068357"
       x="163.18965"
       y="49.891212" />
    <rect
       y="45.657875"
       x="163.18965"
       height="2.068357"
       width="13.650867"
       id="rect1263"
       style="fill:#d5e8d4;stroke:#537a3e;stroke-width:0.12;stroke-miterlimit:4;stroke-dasharray:none;stroke-opacity:1;fill-opacity:1" />
    <rect
       style="fill:#d5e8d4;stroke:#537a3e;stroke-width:0.12;stroke-miterlimit:4;stroke-dasharray:none;stroke-opacity:1;fill-opacity:1"
       id="rect1265"
       width="13.650867"
       height="2.068357"
       x="163.18965"
       y="41.424538" />
    <rect
       style="fill:#d5e8d4;stroke:#537a3e;stroke-width:0.12;stroke-miterlimit:4;stroke-dasharray:none;stroke-opacity:1;fill-opacity:1"
       id="rect1267"
       width="13.650867"
       height="2.068357"
       x="163.18965"
       y="54.12455" />
    <rect
       y="58.357887"
       x="163.18965"
       height="2.068357"
       width="13.650867"
       id="rect1269"
       style="fill:#d5e8d4;stroke:#537a3e;stroke-width:0.12;stroke-miterlimit:4;stroke-dasharray:none;stroke-opacity:1;fill-opacity:1" />
    <rect
       y="59.945385"
       x="67.410469"
       height="2.068357"
       width="13.650867"
       id="rect1271"
       style="fill:#fff2cc;fill-opacity:1;stroke:#a18325;stroke-width:0.12;stroke-miterlimit:4;stroke-dasharray:none;stroke-opacity:1" />
    <rect
       style="fill:#fff2cc;fill-opacity:1;stroke:#a18325;stroke-width:0.12;stroke-miterlimit:4;stroke-dasharray:none;stroke-opacity:1"
       id="rect1273"
       width="13.650867"
       height="2.068357"
       x="95.456291"
       y="59.945385" />
    <rect
       ry="0.82880211"
       y="69.278625"
       x="67.396843"
       height="4.7279568"
       width="13.812204"
       id="rect1275"
       style="fill:#ffd5d5;stroke:#6f0202;stroke-width:0.13965492;stroke-miterlimit:4;stroke-dasharray:none;stroke-opacity:1" />
    <rect
       style="fill:#ffd5d5;stroke:#6f0202;stroke-width:0.18154272;stroke-miterlimit:4;stroke-dasharray:none;stroke-opacity:1"
       id="rect1277"
       width="16.643372"
       height="6.6304111"
       x="66.285301"
       y="68.227173"
       ry="1.1622988" />
    <rect
       style="fill:#ffd5d5;stroke:#6f0202;stroke-width:0.13965492;stroke-miterlimit:4;stroke-dasharray:none;stroke-opacity:1"
       id="rect1315"
       width="13.812204"
       height="4.7279568"
       x="95.442665"
       y="69.278625"
       ry="0.82880211" />
    <rect
       ry="1.1622988"
       y="68.227173"
       x="94.331123"
       height="6.6304111"
       width="16.643372"
       id="rect1317"
       style="fill:#ffd5d5;stroke:#6f0202;stroke-width:0.18154272;stroke-miterlimit:4;stroke-dasharray:none;stroke-opacity:1" />
    <g
       id="g12240"
       transform="matrix(0.11555278,0,0,0.11555278,28.051789,24.570437)">
      <g
         word-spacing="normal"
         letter-spacing="normal"
         font-size-adjust="none"
         font-stretch="normal"
         font-weight="normal"
         font-variant="normal"
         font-style="normal"
         stroke-miterlimit="10.433"
         xml:space="preserve"
         transform="matrix(0.3,0,0,-0.3,-52.5,222.75)"
         id="g12238"
         style="font-style:normal;font-variant:normal;font-weight:normal;font-stretch:normal;letter-spacing:normal;word-spacing:normal;text-anchor:start;fill:none;fill-opacity:1;fill-rule:evenodd;stroke:#000000;stroke-linecap:butt;stroke-linejoin:miter;stroke-miterlimit:10.43299961;stroke-dasharray:none;stroke-dashoffset:0;stroke-opacity:1"><path
           id="path12140"
           d="m 479.29,410.53 -0.01,0.36 -0.01,0.35 -0.02,0.35 -0.02,0.34 -0.06,0.66 -0.09,0.62 -0.11,0.6 -0.14,0.56 -0.15,0.54 -0.18,0.51 -0.19,0.49 -0.21,0.46 -0.23,0.43 -0.25,0.4 -0.26,0.38 -0.27,0.36 -0.29,0.33 -0.3,0.31 -0.31,0.29 -0.31,0.26 -0.33,0.24 -0.34,0.22 -0.34,0.2 -0.35,0.18 -0.35,0.16 -0.36,0.14 -0.35,0.13 -0.36,0.1 -0.37,0.09 -0.36,0.07 -0.36,0.05 -0.35,0.04 -0.35,0.02 -0.35,0.01 -0.05,-1.1 c 4.94,0 4.94,-6.53 4.94,-10.4 0,-1.85 0,-4.74 0.09,-5.58 v 0 c -4.37,-3.84 -8.22,-4.39 -10.2,-4.39 -3,0 -4.49,2.25 -4.49,5.44 0,2.43 1.3,7.81 2.89,10.36 2.33,3.64 5.04,4.57 6.77,4.57 l 0.05,1.1 c -6.82,0 -13.39,-7.13 -13.39,-14.14 0,-4.64 2.98,-8.43 8.06,-8.43 3.14,0 6.73,1.15 10.51,4.19 0.66,-2.64 2.3,-4.19 4.54,-4.19 2.64,0 4.18,2.74 4.18,3.54 0,0.36 -0.29,0.5 -0.59,0.5 -0.36,0 -0.5,-0.14 -0.66,-0.5 -0.89,-2.44 -2.68,-2.44 -2.78,-2.44 -1.54,0 -1.54,3.89 -1.54,5.08 0,1.04 0,1.15 0.5,1.75 4.68,5.87 5.73,11.65 5.73,11.7 0,0.11 -0.06,0.5 -0.61,0.5 -0.5,0 -0.5,-0.14 -0.75,-1.05 -0.89,-3.14 -2.53,-6.92 -4.87,-9.86 z"
           inkscape:connector-curvature="0"
           style="fill:#000000;stroke-width:0" /><path
           id="path12142"
           d="m 497.79,433.21 0.02,0.06 0.03,0.05 0.02,0.05 0.02,0.05 0.02,0.05 0.02,0.04 0.02,0.04 0.02,0.05 0.01,0.04 0.02,0.04 0.01,0.04 0.01,0.03 0.01,0.04 0.01,0.04 0.01,0.03 0.01,0.03 0.01,0.03 0.01,0.04 v 0.03 l 0.01,0.03 v 0.02 l 0.01,0.03 v 0.03 0.03 l 0.01,0.05 v 0.05 0.05 0.04 c 0,1.08 -0.98,1.93 -2.06,1.93 -1.33,0 -1.74,-1.1 -1.91,-1.64 l -4.61,-15.1 c -0.03,-0.06 -0.17,-0.51 -0.17,-0.56 0,-0.41 1.08,-0.77 1.36,-0.77 0.25,0 0.28,0.08 0.52,0.6 z"
           inkscape:connector-curvature="0"
           style="fill:#000000;stroke-width:0" /><path
           id="path12144"
           d="m 548.61,411.21 h -1.25 c 0,-8.56 -6.97,-15.34 -15.34,-15.34 v 0 c -8.57,0 -15.4,6.92 -15.4,15.34 0,8.58 6.97,15.35 15.35,15.35 8.58,0 15.39,-6.92 15.39,-15.35 h 1.25 c 0,9.18 -7.47,16.6 -16.59,16.6 -9.27,0 -16.64,-7.53 -16.64,-16.6 0,-9.17 7.48,-16.59 16.59,-16.59 9.26,0 16.64,7.53 16.64,16.59 z"
           inkscape:connector-curvature="0"
           style="fill:#000000;stroke-width:0" /><path
           id="path12146"
           d="m 535.41,411.21 -0.01,0.18 -0.01,0.18 -0.02,0.17 -0.03,0.17 -0.04,0.16 -0.05,0.16 -0.05,0.16 -0.06,0.16 -0.07,0.15 -0.08,0.15 -0.08,0.14 -0.09,0.14 -0.1,0.14 -0.1,0.13 -0.1,0.12 -0.12,0.12 -0.12,0.12 -0.12,0.1 -0.13,0.11 -0.13,0.09 -0.14,0.09 -0.14,0.09 -0.15,0.07 -0.15,0.07 -0.15,0.06 -0.16,0.06 -0.16,0.04 -0.16,0.04 -0.16,0.03 -0.17,0.02 -0.17,0.02 h -0.17 c -1.99,0 -3.44,-1.64 -3.44,-3.44 0,-1.89 1.54,-3.43 3.39,-3.43 2,0 3.44,1.64 3.44,3.43 z"
           inkscape:connector-curvature="0"
           style="fill:#000000;stroke-width:0" /><path
           id="path12148"
           d="m 588.1,366.87 v -0.01 h 0.01 v 0 l 0.01,-0.01 h 0.01 v -0.01 h 0.01 l 0.01,-0.01 0.01,-0.01 h 0.01 l 0.01,-0.02 0.02,-0.02 0.02,-0.02 0.03,-0.02 0.02,-0.02 0.02,-0.02 0.02,-0.03 0.03,-0.02 0.02,-0.02 0.05,-0.05 0.03,-0.03 0.02,-0.02 0.02,-0.03 0.03,-0.02 0.02,-0.02 0.02,-0.02 0.02,-0.02 0.02,-0.02 0.02,-0.02 0.01,-0.01 h 0.01 l 0.01,-0.01 v -0.01 h 0.01 l 0.01,-0.01 v 0 l 0.01,-0.01 v 0 h 0.01 v -0.01 h 0.01 v 0 0 h 1.11 c 0.14,0 0.55,0.05 0.55,0.5 0,0.2 -0.11,0.3 -0.2,0.45 -1.8,1.8 -4.49,4.53 -7.58,10.02 -5.38,9.56 -7.38,21.87 -7.38,33.83 0,22.12 6.28,35.12 15,43.93 0.16,0.16 0.16,0.3 0.16,0.41 0,0.5 -0.36,0.5 -0.95,0.5 -0.65,0 -0.75,0 -1.21,-0.41 -4.72,-4.07 -10.06,-11.01 -13.5,-21.51 -2.14,-6.58 -3.28,-14.61 -3.28,-22.88 0,-11.81 2.14,-25.15 9.97,-36.71 1.34,-1.94 3.19,-3.99 3.19,-4.04 0.5,-0.59 1.18,-1.4 1.59,-1.75 z"
           inkscape:connector-curvature="0"
           style="fill:#000000;stroke-width:0" /><path
           id="path12150"
           d="m 620.84,427.11 -0.01,0.34 -0.02,0.35 -0.04,0.34 -0.06,0.33 -0.06,0.33 -0.09,0.32 -0.1,0.32 -0.11,0.31 -0.13,0.3 -0.14,0.29 -0.15,0.29 -0.17,0.28 -0.18,0.27 -0.19,0.25 -0.2,0.25 -0.22,0.24 -0.23,0.23 -0.24,0.21 -0.25,0.21 -0.26,0.19 -0.28,0.18 -0.28,0.16 -0.29,0.15 -0.31,0.14 -0.31,0.13 -0.32,0.1 -0.34,0.1 -0.34,0.07 -0.35,0.06 -0.36,0.05 -0.36,0.03 h -0.38 c -2.89,0 -4.28,-0.79 -6.03,-2.09 -2.73,-1.98 -5.48,-6.83 -6.42,-10.61 l -7.92,-31.64 c -0.06,-0.19 0.19,-0.5 0.59,-0.5 0.39,0 0.55,0.11 0.6,0.25 l 3.48,13.75 c 0.95,-2.98 3.14,-4.83 6.78,-4.83 l -0.15,1.1 c -3.78,0 -5.68,2.89 -5.68,6.43 0,0.49 0,1.24 0.25,2.19 l 3.19,12.61 c 1.09,4.28 4.69,12.2 10.66,12.2 2.89,0 4.64,-1.54 4.64,-4.53 v 0 c 0,-3.5 -1.89,-7.08 -4.49,-8.62 -1.34,0.5 -2.34,0.59 -3.84,0.59 -1.05,0 -3.83,0.05 -3.83,-1.59 -0.05,-1.39 2.53,-1.24 3.44,-1.24 l 0.14,1.1 c -0.69,0 -1.69,-0.07 -2.19,0.18 0.11,0.5 1.89,0.41 2.44,0.41 1.05,0 1.5,0 2.14,-0.25 v 0 c -0.64,-0.25 -1.19,-0.34 -2.39,-0.34 l -0.14,-1.1 c 1.84,0 2.59,0.05 4.08,0.64 1.89,-1.79 2.14,-3.34 2.2,-5.62 0.1,-2.89 -1.11,-6.63 -2.5,-8.58 -1.94,-2.69 -5.28,-4.48 -8.12,-4.48 l 0.15,-1.1 c 3.64,0 7.38,1.75 9.61,3.94 2.39,2.3 4,5.48 4,9.17 0,3.58 -1.84,6.17 -3.64,7.42 2.89,1.64 5.72,4.74 5.72,8.32 z"
           inkscape:connector-curvature="0"
           style="fill:#000000;stroke-width:0" /><path
           id="path12152"
           d="m 633.15,433.21 0.02,0.06 0.03,0.05 0.02,0.05 0.02,0.05 0.02,0.05 0.02,0.04 0.02,0.04 0.02,0.05 0.01,0.04 0.02,0.04 0.01,0.04 0.01,0.03 0.01,0.04 0.01,0.04 0.01,0.03 0.01,0.03 0.01,0.03 v 0.04 l 0.01,0.03 0.01,0.03 v 0.02 l 0.01,0.03 v 0.03 0.03 l 0.01,0.05 v 0.05 0.05 0.04 c 0,1.08 -0.98,1.93 -2.06,1.93 -1.33,0 -1.74,-1.1 -1.91,-1.64 l -4.61,-15.1 c -0.03,-0.06 -0.17,-0.51 -0.17,-0.56 0,-0.41 1.08,-0.77 1.36,-0.77 0.25,0 0.28,0.08 0.52,0.6 z"
           inkscape:connector-curvature="0"
           style="fill:#000000;stroke-width:0" /><path
           id="path12154"
           d="m 684.09,411.21 h -1.25 c 0,-8.56 -6.97,-15.34 -15.34,-15.34 v 0 c -8.57,0 -15.4,6.92 -15.4,15.34 0,8.58 6.97,15.35 15.35,15.35 8.58,0 15.39,-6.92 15.39,-15.35 h 1.25 c 0,9.18 -7.47,16.6 -16.59,16.6 -9.27,0 -16.65,-7.53 -16.65,-16.6 0,-9.17 7.49,-16.59 16.6,-16.59 9.27,0 16.64,7.53 16.64,16.59 z"
           inkscape:connector-curvature="0"
           style="fill:#000000;stroke-width:0" /><path
           id="path12156"
           d="m 670.89,411.21 -0.01,0.18 -0.01,0.18 -0.02,0.17 -0.03,0.17 -0.04,0.16 -0.05,0.16 -0.05,0.16 -0.06,0.16 -0.07,0.15 -0.08,0.15 -0.08,0.14 -0.09,0.14 -0.1,0.14 -0.1,0.13 -0.1,0.12 -0.12,0.12 -0.12,0.12 -0.12,0.1 -0.13,0.11 -0.13,0.09 -0.14,0.09 -0.14,0.09 -0.15,0.07 -0.15,0.07 -0.15,0.06 -0.16,0.06 -0.16,0.04 -0.16,0.04 -0.16,0.03 -0.17,0.02 -0.17,0.02 h -0.17 c -1.99,0 -3.44,-1.64 -3.44,-3.44 0,-1.89 1.54,-3.43 3.39,-3.43 2,0 3.44,1.64 3.44,3.43 z"
           inkscape:connector-curvature="0"
           style="fill:#000000;stroke-width:0" /><path
           id="path12158"
           d="m 706.54,418.68 h 7.13 v 1.55 h -7.13 v 9.17 h -1.25 c -0.04,-4.08 -1.54,-9.42 -6.42,-9.61 v -1.11 h 4.23 v -13.75 c 0,-6.12 4.63,-6.72 6.43,-6.72 3.53,0 4.94,3.54 4.94,6.72 v 2.85 h -1.25 v -2.74 c 0,-3.68 -1.5,-5.58 -3.35,-5.58 -3.33,0 -3.33,4.54 -3.33,5.38 z"
           inkscape:connector-curvature="0"
           style="fill:#000000;stroke-width:0" /><path
           id="path12160"
           d="m 733.83,402.54 0.02,-0.18 0.03,-0.19 0.04,-0.19 0.04,-0.18 0.05,-0.19 0.05,-0.18 0.06,-0.18 0.07,-0.18 0.08,-0.18 0.08,-0.17 0.09,-0.17 0.09,-0.17 0.1,-0.16 0.11,-0.16 0.11,-0.15 0.12,-0.15 0.13,-0.14 0.13,-0.14 0.14,-0.13 0.14,-0.12 0.15,-0.11 0.16,-0.11 0.16,-0.1 0.17,-0.09 0.18,-0.08 0.18,-0.07 0.18,-0.06 0.2,-0.05 0.2,-0.04 0.2,-0.03 0.21,-0.02 0.22,-0.01 c 1.03,0 4.08,0.71 4.08,4.74 v 2.78 h -1.25 v -2.78 c 0,-2.89 -1.24,-3.19 -1.8,-3.19 -1.64,0 -1.84,2.24 -1.84,2.49 v 9.96 c 0,2.1 0,4.04 -1.79,5.88 -1.95,1.94 -4.43,2.73 -6.82,2.73 -4.1,0 -7.53,-2.32 -7.53,-5.62 0,-1.49 1,-2.34 2.29,-2.34 1.39,0 2.3,1 2.3,2.29 0,0.6 -0.25,2.24 -2.55,2.3 1.35,1.73 3.78,2.28 5.38,2.28 2.45,0 5.28,-1.94 5.28,-6.37 v -1.85 -1.05 -4.98 c 0,-4.73 -3.58,-6.42 -5.83,-6.42 -2.44,0 -4.48,1.75 -4.48,4.23 0,2.74 2.09,6.88 10.31,7.17 v 0 1.05 c -2.53,-0.14 -6.02,-0.3 -9.16,-1.8 -3.73,-1.68 -4.98,-4.28 -4.98,-6.46 0,-4.04 4.83,-5.29 7.97,-5.29 3.29,0 5.58,1.99 6.53,4.33 z"
           inkscape:connector-curvature="0"
           style="fill:#000000;stroke-width:0" /><path
           id="path12162"
           d="m 747.68,415.9 v -13.36 c 0,-2.23 -0.55,-2.23 -3.9,-2.23 v -1.55 c 1.75,0.05 4.29,0.16 5.63,0.16 1.3,0 3.89,-0.11 5.58,-0.16 v 1.55 c -3.33,0 -3.88,0 -3.88,2.23 v 9.17 c 0,5.19 3.54,7.97 6.72,7.97 3.14,0 3.69,-2.68 3.69,-5.53 v -11.61 c 0,-2.23 -0.55,-2.23 -3.89,-2.23 v -1.55 c 1.75,0.05 4.3,0.16 5.64,0.16 1.3,0 3.88,-0.11 5.58,-0.16 v 1.55 c -2.6,0 -3.85,0 -3.89,1.5 v 9.51 c 0,4.29 0,5.83 -1.55,7.61 -0.69,0.86 -2.34,1.85 -5.22,1.85 -3.64,0 -5.98,-2.14 -7.37,-5.22 v 5.22 l -7.04,-0.55 v -1.55 c 3.49,0 3.9,-0.34 3.9,-2.78 z"
           inkscape:connector-curvature="0"
           style="fill:#000000;stroke-width:0" /><path
           id="path12164"
           d="m 775.4,402.54 -0.01,-0.1 v -0.1 -0.19 l -0.01,-0.18 -0.02,-0.16 -0.01,-0.16 -0.03,-0.14 -0.03,-0.14 -0.03,-0.12 -0.04,-0.11 -0.05,-0.11 -0.06,-0.09 -0.06,-0.09 -0.08,-0.07 -0.08,-0.07 -0.09,-0.07 -0.1,-0.05 -0.11,-0.05 -0.11,-0.04 -0.13,-0.04 -0.15,-0.03 -0.15,-0.03 -0.16,-0.02 -0.18,-0.02 -0.09,-0.01 -0.1,-0.01 h -0.1 l -0.1,-0.01 h -0.11 l -0.11,-0.01 h -0.11 -0.11 -0.12 l -0.13,-0.01 h -0.13 -0.13 -0.13 -0.14 -0.14 -0.15 -0.15 -0.16 v -1.55 c 1.75,0.05 4.28,0.16 5.63,0.16 1.3,0 3.89,-0.11 5.58,-0.16 v 1.55 c -3.33,0 -3.88,0 -3.88,2.23 v 9.17 c 0,5.19 3.53,7.97 6.72,7.97 3.14,0 3.69,-2.68 3.69,-5.53 v -11.61 c 0,-2.23 -0.55,-2.23 -3.89,-2.23 v -1.55 c 1.75,0.05 4.3,0.16 5.64,0.16 1.29,0 3.87,-0.11 5.58,-0.16 v 1.55 c -2.6,0 -3.85,0 -3.89,1.5 v 9.51 c 0,4.29 0,5.83 -1.55,7.61 -0.69,0.86 -2.35,1.85 -5.22,1.85 -4.19,0 -6.39,-2.99 -7.23,-4.88 v 17.44 l -7.18,-0.55 v -1.54 c 3.49,0 3.9,-0.35 3.9,-2.8 z"
           inkscape:connector-curvature="0"
           style="fill:#000000;stroke-width:0" /><path
           id="path12166"
           d="m 824.28,397.37 v 0.29 0.28 0.26 0.25 0.24 0.23 0.21 0.21 l -0.01,0.2 v 0.18 l -0.01,0.18 v 0.17 l -0.01,0.16 -0.01,0.15 -0.01,0.15 -0.01,0.15 -0.01,0.13 -0.01,0.14 -0.02,0.12 -0.02,0.13 -0.04,0.24 -0.05,0.24 -0.05,0.23 -0.07,0.24 -0.04,0.12 -0.04,0.12 -0.04,0.13 -0.05,0.13 c -1.54,4.53 -5.92,7.17 -9.21,8.47 5.73,2.43 8.58,5.78 9.46,9.26 0.16,0.6 0.25,1.5 0.25,1.75 v 22.41 c 0,4.14 3.29,7.28 7.97,9.26 0.75,0.36 0.8,0.41 0.8,1.16 0,0.94 -0.05,1 -1,1 -1.44,0 -5.17,-1.84 -7.17,-3.39 -1.69,-1.34 -4.33,-4.14 -4.38,-7.53 -0.06,-3.99 0,-8.02 0,-12 v -7.78 c 0,-4.38 0,-6.02 -2.59,-9.11 -0.59,-0.7 -2.05,-2.25 -5.48,-3.89 -0.65,-0.3 -0.71,-0.35 -0.71,-1.1 0,-0.79 0.06,-0.84 1.05,-1.29 5.28,-2.44 7.73,-6.67 7.73,-9.82 v -20.71 c 0,-2.35 0,-5.35 2.53,-7.93 1.1,-1.11 2.15,-2.15 4.54,-3.39 0.61,-0.36 3.14,-1.7 4.48,-1.7 0.95,0 1,0.05 1,1 0,0.7 0,0.84 -0.45,1 -2.94,1.25 -7.36,3.58 -8.22,8.22 -0.1,0.55 -0.1,2.23 -0.1,3.39 z"
           inkscape:connector-curvature="0"
           style="fill:#000000;stroke-width:0" /><path
           id="path12168"
           d="m 855.52,386.81 v 0.03 0.02 0.02 0.01 l -0.01,0.01 v 0.02 l -0.01,0.02 v 0.01 l -0.01,0.02 -0.01,0.02 -0.01,0.03 -0.02,0.02 -0.01,0.02 -0.02,0.03 -0.02,0.03 -0.03,0.03 -0.02,0.04 -0.03,0.03 -0.02,0.02 -0.02,0.02 -0.01,0.02 -0.02,0.02 -0.02,0.03 -0.02,0.02 -0.02,0.02 -0.02,0.03 -0.03,0.02 -0.02,0.03 -0.02,0.02 -0.03,0.03 -0.03,0.03 -0.02,0.03 -0.03,0.03 -0.03,0.03 -0.03,0.03 -0.03,0.03 -0.04,0.04 -0.03,0.03 -0.04,0.04 -0.03,0.04 -0.04,0.03 -0.04,0.04 c -6.22,6.28 -7.81,15.69 -7.81,23.31 0,8.68 1.89,17.35 8.01,23.57 0.64,0.61 0.64,0.7 0.64,0.86 0,0.34 -0.18,0.48 -0.48,0.48 -0.5,0 -4.99,-3.37 -7.92,-9.7 -2.55,-5.49 -3.14,-11.02 -3.14,-15.21 0,-3.89 0.54,-9.9 3.28,-15.54 2.98,-6.13 7.28,-9.36 7.78,-9.36 0.3,0 0.48,0.14 0.48,0.5 z"
           inkscape:connector-curvature="0"
           style="fill:#000000;stroke-width:0" /><path
           id="path12170"
           d="m 875.59,411.01 5.83,6.49 c 0.65,0.7 0.95,1.04 5.09,1.04 v 2.35 c -1.75,-0.11 -4.34,-0.16 -4.59,-0.16 -1.25,0 -3.74,0.11 -5.13,0.16 v -2.35 c 0.69,0 1.3,-0.11 1.89,-0.45 -0.2,-0.3 -0.2,-0.39 -0.4,-0.59 l -4.18,-4.69 -4.88,5.73 h 2 v 2.35 c -1.3,-0.05 -4.44,-0.16 -6.04,-0.16 -1.59,0 -3.84,0.11 -5.48,0.16 v -2.35 h 3.53 l 7.78,-9.17 -6.53,-7.33 c -0.84,-0.93 -2.64,-0.93 -5.03,-0.93 v -2.35 c 1.75,0.1 4.34,0.16 4.58,0.16 1.25,0 4.14,-0.11 5.14,-0.16 v 2.35 c -0.89,0 -1.85,0.25 -1.85,0.54 0,0.05 0,0.1 0.35,0.5 l 4.84,5.42 5.47,-6.46 h -1.94 v -2.35 c 1.3,0.05 4.33,0.16 5.99,0.16 1.59,0 3.82,-0.11 5.47,-0.16 v 2.35 h -3.53 z"
           inkscape:connector-curvature="0"
           style="fill:#000000;stroke-width:0" /><path
           id="path12172"
           d="m 900.98,450.7 -0.61,-0.45 -0.58,-0.46 -0.55,-0.47 -0.52,-0.49 -0.5,-0.5 -0.48,-0.51 -0.44,-0.53 -0.43,-0.53 -0.4,-0.54 -0.37,-0.55 -0.35,-0.56 -0.33,-0.56 -0.31,-0.57 -0.29,-0.57 -0.27,-0.58 -0.24,-0.58 -0.23,-0.58 -0.21,-0.58 -0.19,-0.59 -0.17,-0.58 -0.16,-0.58 -0.14,-0.58 -0.12,-0.57 -0.11,-0.57 -0.09,-0.57 -0.08,-0.56 -0.07,-0.55 -0.05,-0.55 -0.04,-0.53 -0.03,-0.53 -0.01,-0.52 -0.01,-0.5 c 0,-4.92 1.47,-12.55 8.38,-17.42 0.28,0 0.68,0 0.68,0.4 0,0.22 -0.09,0.28 -0.34,0.53 -4.64,4.19 -6.34,10.11 -6.34,16.46 0,9.4 3.59,14 6.45,16.58 0.14,0.14 0.23,0.25 0.23,0.42 0,0.42 -0.4,0.42 -0.68,0.42 z"
           inkscape:connector-curvature="0"
           style="fill:#000000;stroke-width:0" /><path
           id="path12174"
           d="m 915.5,446.34 -0.01,0.05 v 0.06 l -0.01,0.05 v 0.05 l -0.02,0.06 -0.01,0.06 -0.02,0.05 -0.02,0.06 -0.02,0.05 -0.02,0.06 -0.03,0.06 -0.03,0.05 -0.03,0.05 -0.04,0.06 -0.04,0.05 -0.04,0.05 -0.04,0.05 -0.05,0.04 -0.05,0.05 -0.05,0.04 -0.06,0.04 -0.06,0.04 -0.06,0.04 -0.07,0.03 -0.06,0.03 -0.07,0.02 -0.08,0.02 -0.08,0.02 -0.08,0.02 -0.08,0.01 -0.09,0.01 h -0.09 c -0.94,0 -1.95,-0.91 -1.95,-1.92 0,-0.6 0.45,-1.33 1.4,-1.33 1,0 1.96,0.98 1.96,1.92 z"
           inkscape:connector-curvature="0"
           style="fill:#000000;stroke-width:0" /><path
           id="path12176"
           d="m 908.39,428.64 -0.06,-0.17 -0.05,-0.17 -0.03,-0.08 -0.02,-0.09 -0.03,-0.09 -0.02,-0.08 -0.02,-0.09 -0.02,-0.1 -0.02,-0.09 -0.02,-0.1 -0.01,-0.09 v -0.06 l -0.01,-0.05 v -0.05 -0.05 l -0.01,-0.06 v -0.05 c 0,-1.64 1.4,-2.96 3.3,-2.96 3.48,0 5.03,4.8 5.03,5.33 0,0.46 -0.45,0.46 -0.56,0.46 -0.49,0 -0.53,-0.21 -0.67,-0.6 -0.8,-2.78 -2.33,-4.22 -3.69,-4.22 -0.7,0 -0.88,0.46 -0.88,1.22 0,0.8 0.25,1.47 0.57,2.24 0.34,0.93 0.73,1.87 1.11,2.78 0.31,0.84 1.57,4.01 1.72,4.44 0.09,0.34 0.2,0.76 0.2,1.1 0,1.65 -1.39,2.96 -3.31,2.96 -3.46,0 -5.05,-4.74 -5.05,-5.33 0,-0.45 0.48,-0.45 0.59,-0.45 0.49,0 0.52,0.17 0.63,0.56 0.91,3 2.44,4.25 3.72,4.25 0.56,0 0.87,-0.28 0.87,-1.22 0,-0.8 -0.2,-1.33 -1.08,-3.48 z"
           inkscape:connector-curvature="0"
           style="fill:#000000;stroke-width:0" /><path
           id="path12178"
           d="m 921.38,450.7 h -0.02 -0.03 -0.03 -0.02 -0.03 -0.03 l -0.02,-0.01 h -0.03 -0.03 -0.03 l -0.03,-0.01 h -0.02 l -0.03,-0.01 -0.03,-0.01 h -0.02 l -0.03,-0.01 -0.03,-0.01 -0.02,-0.02 -0.02,-0.01 -0.03,-0.01 -0.02,-0.02 -0.02,-0.02 -0.02,-0.02 v -0.01 l -0.01,-0.01 -0.01,-0.01 -0.01,-0.01 -0.01,-0.01 v -0.02 l -0.01,-0.01 v -0.01 l -0.01,-0.02 v -0.01 l -0.01,-0.02 v -0.02 l -0.01,-0.01 v -0.02 -0.02 -0.01 -0.02 -0.02 c 0,-0.17 0.11,-0.28 0.31,-0.53 3,-2.75 6.34,-7.46 6.34,-16.44 0,-7.28 -2.26,-12.8 -6.03,-16.2 -0.58,-0.6 -0.62,-0.63 -0.62,-0.82 0,-0.17 0.11,-0.4 0.45,-0.4 0.42,0 3.74,2.29 6.03,6.65 1.53,2.89 2.55,6.66 2.55,10.74 0,4.9 -1.47,12.53 -8.36,17.42 z"
           inkscape:connector-curvature="0"
           style="fill:#000000;stroke-width:0" /><path
           id="path12180"
           d="m 897.18,400.16 h 3.55 c 0.65,0 1.11,0 1.11,0.77 0,0.48 -0.46,0.48 -1.04,0.48 h -3.31 l 1.28,5.16 c 0.03,0.17 0.11,0.34 0.11,0.48 0,0.65 -0.48,1.13 -1.18,1.13 -0.88,0 -1.4,-0.59 -1.65,-1.5 -0.23,-0.88 0.22,0.8 -1.32,-5.27 h -3.55 c -0.66,0 -1.11,0 -1.11,-0.76 0,-0.49 0.41,-0.49 1.05,-0.49 h 3.29 l -2.04,-8.21 c -0.22,-0.88 -0.53,-2.13 -0.53,-2.58 0,-2.07 1.75,-3.32 3.73,-3.32 3.88,0 6.06,4.88 6.06,5.33 0,0.46 -0.45,0.46 -0.56,0.46 -0.41,0 -0.45,-0.08 -0.72,-0.66 -0.98,-2.2 -2.76,-4.16 -4.67,-4.16 -0.73,0 -1.22,0.46 -1.22,1.71 0,0.36 0.14,1.09 0.2,1.43 z"
           inkscape:connector-curvature="0"
           style="fill:#000000;stroke-width:0" /><path
           id="path12182"
           d="m 980.23,410.21 0.16,0.01 h 0.15 0.16 l 0.08,0.01 h 0.08 l 0.07,0.01 0.08,0.01 0.07,0.01 0.07,0.01 0.07,0.01 0.07,0.02 0.06,0.02 0.07,0.02 0.06,0.02 0.06,0.03 0.05,0.03 0.06,0.04 0.04,0.04 0.05,0.04 0.04,0.05 0.04,0.05 0.02,0.02 0.02,0.03 0.01,0.03 0.02,0.03 0.01,0.03 0.01,0.04 0.02,0.03 0.01,0.03 0.01,0.04 v 0.04 l 0.01,0.04 0.01,0.04 v 0.04 0.04 l 0.01,0.05 v 0.04 c 0,1 -0.91,1 -1.75,1 h -26.96 c -0.84,0 -1.73,0 -1.73,-1 0,-1 0.89,-1 1.73,-1 z"
           inkscape:connector-curvature="0"
           style="fill:#000000;stroke-width:0" /><polygon
           id="polygon12184"
           points="1013.6,430.75 1019.3,425.67 1020.2,426.56 1013.6,433.34 1006.9,426.56 1007.8,425.67 "
           style="fill:#000000;stroke-width:0" /><path
           id="path12186"
           d="m 1008.7,416.25 v 0.1 l 0.1,0.1 v 0.11 0.11 0.12 l 0.1,0.12 v 0.24 l 0.1,0.25 0.1,0.25 v 0.25 l 0.1,0.24 v 0.12 0.11 l 0.1,0.11 v 0.11 0.11 0.09 0.1 l 0.1,0.09 v 0.08 0.08 0.07 0.06 0.05 0.05 0.04 0.01 l 0.1,0.01 c 0,0.85 -0.7,1.35 -1.5,1.35 -0.2,0 -1.5,-0.05 -2,-1.78 l -7.16,-28.86 c -0.14,-0.6 -0.14,-0.69 -0.14,-0.8 0,-0.73 0.54,-1.34 1.4,-1.34 1,0 1.6,0.9 1.7,1.04 0.2,0.46 0.9,3.05 2.8,10.72 1.6,-1.34 3.8,-1.55 4.8,-1.55 3.5,0 5.4,2.24 6.6,3.65 0.5,-2.25 2.3,-3.65 4.5,-3.65 1.8,0 2.9,1.15 3.7,2.74 0.8,1.8 1.5,4.84 1.5,4.94 0,0.5 -0.5,0.5 -0.6,0.5 -0.5,0 -0.5,-0.21 -0.7,-0.91 -0.9,-3.23 -1.7,-6.17 -3.8,-6.17 -1.3,0 -1.5,1.3 -1.5,2.3 0,1.09 0.6,3.43 1,5.17 l 1.4,5.39 c 0.2,0.75 0.7,2.64 0.8,3.39 0.3,1.14 0.8,3.03 0.8,3.33 0,0.9 -0.7,1.34 -1.4,1.34 -0.3,0 -1.6,-0.05 -2,-1.73 l -2.3,-9.33 c -0.6,-2.49 -1.2,-4.58 -1.3,-5.08 -0.1,-0.25 -2.5,-4.78 -6.5,-4.78 -2.5,0 -3.7,1.64 -3.7,4.33 0,1.45 0.4,2.84 0.7,4.25 z"
           inkscape:connector-curvature="0"
           style="fill:#000000;stroke-width:0" /><path
           id="path12188"
           d="m 1041.6,411.21 v 0.38 0.38 0.39 0.41 l -0.1,0.84 v 0.88 l -0.1,0.92 -0.1,0.95 -0.2,0.98 -0.1,1 -0.2,1.02 -0.3,1.04 -0.2,1.05 -0.3,1.06 -0.4,1.06 -0.4,1.07 -0.2,0.53 -0.2,0.53 -0.2,0.53 -0.3,0.53 c -3,6.13 -7.3,9.36 -7.8,9.36 -0.3,0 -0.5,-0.19 -0.5,-0.48 0,-0.16 0,-0.25 1,-1.16 4.9,-4.92 7.7,-12.84 7.7,-23.27 0,-8.51 -1.8,-17.28 -8,-23.56 -0.7,-0.59 -0.7,-0.7 -0.7,-0.84 0,-0.3 0.2,-0.5 0.5,-0.5 0.5,0 5,3.39 8,9.72 2.5,5.47 3.1,11 3.1,15.18 z"
           inkscape:connector-curvature="0"
           style="fill:#000000;stroke-width:0" /><path
           id="path12190"
           d="m 1093.6,411.21 v 0.86 0.84 l -0.2,0.83 -0.1,0.82 -0.2,0.8 -0.2,0.79 -0.3,0.77 -0.3,0.76 -0.3,0.73 -0.4,0.72 -0.4,0.69 -0.4,0.68 -0.5,0.65 -0.5,0.62 -0.5,0.61 -0.5,0.57 -0.6,0.55 -0.6,0.52 -0.6,0.49 -0.7,0.47 -0.7,0.43 -0.7,0.4 -0.7,0.36 -0.7,0.34 -0.8,0.29 -0.7,0.26 -0.8,0.23 -0.8,0.18 -0.8,0.15 -0.9,0.1 -0.8,0.07 -0.9,0.02 c -9.2,0 -16.6,-7.53 -16.6,-16.6 h 1.3 c 0,8.58 6.9,15.35 15.3,15.35 1.8,0 6.3,-0.25 10.4,-4.08 l 0.9,-0.84 c 2.4,-2.55 4.1,-6.33 4.1,-10.43 0,-8.56 -7,-15.34 -15.4,-15.34 -1.7,0 -6.3,0.25 -10.4,4.09 l 21.7,21.68 -0.9,0.84 -21.2,-21.17 c -0.4,-0.36 -0.4,-0.41 -0.4,-0.41 -0.2,0 -4.1,3.99 -4.1,10.31 h -1.3 c 0,-9.17 7.5,-16.59 16.6,-16.59 9.3,0 16.6,7.53 16.6,16.59 z"
           inkscape:connector-curvature="0"
           style="fill:#000000;stroke-width:0" /><path
           id="path12192"
           d="m 1136.1,427.11 v 0.34 0.35 l -0.1,0.34 v 0.33 l -0.1,0.33 -0.1,0.32 -0.1,0.32 -0.1,0.31 -0.1,0.3 -0.1,0.29 -0.2,0.29 -0.2,0.28 -0.1,0.27 -0.2,0.25 -0.2,0.25 -0.3,0.24 -0.2,0.23 -0.2,0.21 -0.3,0.21 -0.2,0.19 -0.3,0.18 -0.3,0.16 -0.3,0.15 -0.3,0.14 -0.3,0.13 -0.3,0.1 -0.4,0.1 -0.3,0.07 -0.4,0.06 -0.3,0.05 -0.4,0.03 h -0.4 c -2.9,0 -4.2,-0.79 -6,-2.09 -2.7,-1.98 -5.5,-6.83 -6.4,-10.61 l -7.9,-31.64 c -0.1,-0.19 0.2,-0.5 0.6,-0.5 0.3,0 0.5,0.11 0.6,0.25 l 3.4,13.75 c 1,-2.98 3.2,-4.83 6.8,-4.83 l -0.1,1.1 c -3.8,0 -5.7,2.89 -5.7,6.43 0,0.49 0,1.24 0.2,2.19 l 3.2,12.61 c 1.1,4.28 4.7,12.2 10.7,12.2 2.9,0 4.6,-1.54 4.6,-4.53 v 0 c 0,-3.5 -1.9,-7.08 -4.5,-8.62 -1.3,0.5 -2.3,0.59 -3.8,0.59 -1.1,0 -3.8,0.05 -3.8,-1.59 -0.1,-1.39 2.5,-1.24 3.4,-1.24 l 0.2,1.1 c -0.7,0 -1.7,-0.07 -2.2,0.18 0.1,0.5 1.8,0.41 2.4,0.41 1,0 1.5,0 2.1,-0.25 v 0 c -0.6,-0.25 -1.2,-0.34 -2.3,-0.34 l -0.2,-1.1 c 1.8,0 2.6,0.05 4.1,0.64 1.9,-1.79 2.1,-3.34 2.2,-5.62 0.1,-2.89 -1.1,-6.63 -2.5,-8.58 -2,-2.69 -5.3,-4.48 -8.1,-4.48 l 0.1,-1.1 c 3.7,0 7.4,1.75 9.6,3.94 2.4,2.3 4,5.48 4,9.17 0,3.58 -1.8,6.17 -3.6,7.42 2.9,1.64 5.7,4.74 5.7,8.32 z"
           inkscape:connector-curvature="0"
           style="fill:#000000;stroke-width:0" /><path
           id="path12194"
           d="m 1148.4,433.21 0.1,0.06 v 0.05 0.05 0.05 0.05 l 0.1,0.04 v 0.04 0.05 0.04 0.04 0.04 l 0.1,0.03 v 0.04 0.04 0.03 0.03 0.03 0.04 0.03 0.03 0.02 0.03 0.03 0.03 0.05 0.05 0.05 0.04 c 0,1.08 -0.9,1.93 -2,1.93 -1.4,0 -1.8,-1.1 -1.9,-1.64 l -4.6,-15.1 c -0.1,-0.06 -0.2,-0.51 -0.2,-0.56 0,-0.41 1.1,-0.77 1.3,-0.77 0.3,0 0.3,0.08 0.6,0.6 z"
           inkscape:connector-curvature="0"
           style="fill:#000000;stroke-width:0" /><path
           id="path12196"
           d="m 1170.7,397.01 v 0.4 0.39 0.37 0.36 0.35 0.34 0.32 l 0.1,0.31 v 0.3 0.3 0.28 l 0.1,0.28 v 0.27 0.26 l 0.1,0.26 v 0.26 l 0.1,0.25 0.1,0.24 0.1,0.25 0.1,0.24 0.1,0.25 0.1,0.24 0.1,0.24 0.1,0.25 0.2,0.25 0.1,0.25 0.2,0.25 0.2,0.26 0.2,0.27 0.2,0.27 0.2,0.28 0.2,0.28 c 0.6,0.6 2.1,2.3 5.5,3.89 0.6,0.3 0.7,0.35 0.7,1.1 0,0.54 0,0.64 -0.1,0.84 -0.1,0.05 -0.1,0.05 -1,0.45 -5.2,2.44 -7.7,6.63 -7.7,9.82 v 20.72 c 0,2.34 0,5.34 -2.5,7.92 -1.1,1.09 -2.2,2.14 -4.6,3.39 -0.5,0.25 -3.1,1.7 -4.4,1.7 -0.9,0 -1,-0.06 -1,-1 0,-0.66 0,-0.84 0.4,-1.05 2,-0.79 7.3,-3.04 8.2,-8.17 0.1,-0.54 0.1,-2.25 0.1,-3.39 v -17.44 c 0,-3.18 0,-3.89 0.5,-5.28 1.6,-4.53 6,-7.17 9.2,-8.47 -5.7,-2.43 -8.5,-5.78 -9.4,-9.26 -0.2,-0.6 -0.3,-1.5 -0.3,-1.75 v -22.42 c 0,-4.03 -3.1,-7.18 -7.9,-9.27 -0.8,-0.34 -0.8,-0.39 -0.8,-1.14 0,-0.95 0.1,-1 1,-1 1.4,0 5,1.8 7.1,3.39 1.7,1.34 4.4,4.14 4.4,7.53 0.1,3.99 0,8.02 0,12 z"
           inkscape:connector-curvature="0"
           style="fill:#000000;stroke-width:0" /><path
           id="path12198"
           d="m 1216.9,410.21 h 13.9 c 0.7,0 1.6,0 1.6,1 0,1 -0.9,1 -1.6,1 h -13.9 v 13.96 c 0,0.69 0,1.64 -1,1.64 -1,0 -1,-0.95 -1,-1.64 V 412.21 H 1201 c -0.8,0 -1.7,0 -1.7,-1 0,-1 0.9,-1 1.7,-1 h 13.9 v -13.93 c 0,-0.71 0,-1.66 1,-1.66 1,0 1,0.95 1,1.66 z"
           inkscape:connector-curvature="0"
           style="fill:#000000;stroke-width:0" /><polygon
           id="polygon12200"
           points="1262.7,430.75 1268.5,425.67 1269.4,426.56 1262.7,433.34 1256.1,426.56 1256.9,425.67 "
           style="fill:#000000;stroke-width:0" /><path
           id="path12202"
           d="m 1257.8,416.25 0.1,0.1 v 0.1 0.11 0.11 l 0.1,0.12 v 0.12 l 0.1,0.24 v 0.25 l 0.1,0.25 v 0.25 l 0.1,0.24 v 0.12 0.11 l 0.1,0.11 v 0.11 0.11 0.09 l 0.1,0.1 v 0.09 0.08 0.08 0.07 0.06 l 0.1,0.05 v 0.05 0.04 0.01 0.01 c 0,0.85 -0.6,1.35 -1.5,1.35 -0.1,0 -1.5,-0.05 -2,-1.78 l -7.1,-28.86 c -0.2,-0.6 -0.2,-0.69 -0.2,-0.8 0,-0.73 0.6,-1.34 1.4,-1.34 1,0 1.6,0.9 1.8,1.04 0.1,0.46 0.8,3.05 2.7,10.72 1.6,-1.34 3.8,-1.55 4.8,-1.55 3.5,0 5.5,2.24 6.6,3.65 0.5,-2.25 2.3,-3.65 4.5,-3.65 1.8,0 2.9,1.15 3.7,2.74 0.9,1.8 1.5,4.84 1.5,4.94 0,0.5 -0.4,0.5 -0.6,0.5 -0.5,0 -0.5,-0.21 -0.7,-0.91 -0.8,-3.23 -1.7,-6.17 -3.8,-6.17 -1.3,0 -1.5,1.3 -1.5,2.3 0,1.09 0.6,3.43 1,5.17 l 1.4,5.39 c 0.2,0.75 0.7,2.64 0.9,3.39 0.2,1.14 0.7,3.03 0.7,3.33 0,0.9 -0.7,1.34 -1.4,1.34 -0.3,0 -1.6,-0.05 -2,-1.73 l -2.3,-9.33 c -0.6,-2.49 -1.2,-4.58 -1.3,-5.08 -0.1,-0.25 -2.4,-4.78 -6.5,-4.78 -2.5,0 -3.7,1.64 -3.7,4.33 0,1.45 0.4,2.84 0.7,4.25 z"
           inkscape:connector-curvature="0"
           style="fill:#000000;stroke-width:0" /><path
           id="path12204"
           d="m 1297,411.16 v 2.69 l -0.1,2.71 -0.2,2.71 -0.3,2.71 -0.4,2.7 -0.5,2.69 -0.6,2.67 -0.8,2.64 -0.8,2.6 -0.4,1.28 -0.5,1.27 -0.6,1.27 -0.5,1.24 -0.6,1.23 -0.6,1.22 -0.7,1.2 -0.6,1.19 -0.8,1.16 -0.7,1.15 -0.8,1.12 -0.8,1.11 -0.9,1.09 -0.9,1.06 c -0.7,0.79 -2.6,2.73 -3.7,3.78 -0.4,0.31 -0.5,0.31 -1.1,0.31 -0.5,0 -1,0 -1,-0.5 0,-0.2 0.2,-0.41 0.3,-0.5 1.7,-1.75 4.4,-4.48 7.5,-9.97 5.4,-9.56 7.4,-21.87 7.4,-33.83 0,-21.62 -6,-34.82 -15,-43.93 -0.1,-0.11 -0.2,-0.25 -0.2,-0.41 0,-0.5 0.5,-0.5 1,-0.5 0.6,0 0.7,0 1.2,0.41 4.7,4.07 10,11 13.5,21.51 2.1,6.83 3.2,14.91 3.2,22.92 z"
           inkscape:connector-curvature="0"
           style="fill:#000000;stroke-width:0" /><path
           id="path12206"
           d="m 390.44,312 v 0.13 l -0.01,0.14 -0.02,0.13 -0.02,0.13 -0.03,0.12 -0.04,0.13 -0.04,0.12 -0.05,0.12 -0.05,0.12 -0.06,0.11 -0.06,0.11 -0.07,0.11 -0.07,0.1 -0.08,0.1 -0.09,0.1 -0.08,0.09 -0.1,0.09 -0.09,0.08 -0.1,0.08 -0.11,0.07 -0.1,0.07 -0.11,0.07 -0.12,0.06 -0.11,0.05 -0.12,0.05 -0.13,0.04 -0.12,0.04 -0.13,0.03 -0.13,0.02 -0.13,0.02 -0.13,0.01 h -0.14 c -1.44,0 -2.64,-1.2 -2.64,-2.64 0,-1.44 1.2,-2.64 2.64,-2.64 1.45,0 2.64,1.2 2.64,2.64 z"
           inkscape:connector-curvature="0"
           style="fill:#000000;stroke-width:0" /><path
           id="path12208"
           d="m 536.85,320.81 h 13.91 c 0.69,0 1.64,0 1.64,1 0,1 -0.95,1 -1.64,1 h -13.91 v 13.96 c 0,0.68 0,1.64 -1,1.64 -0.98,0 -0.98,-0.96 -0.98,-1.64 v -13.96 h -13.96 c -0.7,0 -1.64,0 -1.64,-1 0,-1 0.94,-1 1.64,-1 h 13.96 v -13.93 c 0,-0.71 0,-1.66 0.98,-1.66 1,0 1,0.95 1,1.66 z"
           inkscape:connector-curvature="0"
           style="fill:#000000;stroke-width:0" /><path
           id="path12210"
           d="m 582.76,297.41 v 0.02 0.03 l -0.01,0.01 v 0.02 0.01 l -0.01,0.02 v 0.01 l -0.01,0.02 -0.01,0.02 -0.01,0.02 -0.01,0.02 -0.01,0.03 -0.02,0.02 -0.02,0.03 -0.02,0.03 -0.02,0.03 -0.03,0.03 -0.03,0.04 -0.01,0.02 -0.02,0.02 -0.02,0.02 -0.02,0.02 -0.02,0.02 -0.02,0.03 -0.02,0.02 -0.02,0.02 -0.02,0.03 -0.02,0.02 -0.03,0.03 -0.02,0.03 -0.03,0.03 -0.03,0.03 -0.03,0.03 -0.03,0.03 -0.03,0.03 -0.03,0.03 -0.03,0.04 -0.04,0.03 -0.03,0.04 -0.04,0.03 -0.04,0.04 -0.04,0.04 c -6.21,6.28 -7.81,15.69 -7.81,23.31 0,8.67 1.89,17.35 8.02,23.57 0.64,0.6 0.64,0.7 0.64,0.85 0,0.35 -0.19,0.49 -0.49,0.49 -0.5,0 -4.98,-3.38 -7.92,-9.7 -2.55,-5.49 -3.14,-11.02 -3.14,-15.21 0,-3.89 0.55,-9.9 3.28,-15.54 2.99,-6.13 7.28,-9.36 7.78,-9.36 0.3,0 0.49,0.14 0.49,0.5 z"
           inkscape:connector-curvature="0"
           style="fill:#000000;stroke-width:0" /><path
           id="path12212"
           d="m 600.23,341.25 v 0.05 0.06 0.05 0.05 0.05 0.05 0.04 0.05 0.04 0.04 l -0.01,0.04 v 0.04 0.04 0.03 0.04 l -0.01,0.03 -0.01,0.07 v 0.06 l -0.02,0.05 -0.01,0.05 -0.02,0.05 -0.02,0.04 -0.02,0.04 -0.02,0.03 -0.03,0.04 -0.03,0.02 -0.04,0.03 -0.04,0.02 -0.04,0.02 -0.03,0.01 -0.02,0.01 h -0.03 l -0.02,0.01 -0.03,0.01 h -0.03 l -0.03,0.01 h -0.03 l -0.04,0.01 h -0.03 -0.04 l -0.03,0.01 h -0.04 -0.04 -0.05 -0.04 -0.04 l -0.05,0.01 h -0.05 -0.05 -0.05 -0.05 c -3.09,-3.19 -7.47,-3.19 -9.06,-3.19 v -1.55 c 1,0 3.94,0 6.51,1.3 V 313.3 c 0,-1.8 -0.14,-2.39 -4.62,-2.39 h -1.6 v -1.55 c 1.75,0.16 6.08,0.16 8.07,0.16 2,0 6.33,0 8.08,-0.16 v 1.55 h -1.6 c -4.48,0 -4.64,0.54 -4.64,2.39 z"
           inkscape:connector-curvature="0"
           style="fill:#000000;stroke-width:0" /><path
           id="path12214"
           d="m 654.42,320.81 h 0.16 0.16 l 0.15,0.01 h 0.08 l 0.08,0.01 0.07,0.01 h 0.08 l 0.07,0.01 0.07,0.02 0.07,0.01 0.07,0.02 0.07,0.02 0.06,0.02 0.06,0.02 0.06,0.03 0.05,0.03 0.06,0.04 0.05,0.04 0.04,0.04 0.04,0.04 0.04,0.05 0.02,0.03 0.02,0.03 0.01,0.03 0.02,0.03 0.01,0.03 0.02,0.03 0.01,0.04 0.01,0.03 0.01,0.04 v 0.04 l 0.01,0.04 0.01,0.04 v 0.04 l 0.01,0.04 v 0.05 0.04 c 0,1 -0.91,1 -1.75,1 h -26.95 c -0.85,0 -1.74,0 -1.74,-1 0,-1 0.89,-1 1.74,-1 z"
           inkscape:connector-curvature="0"
           style="fill:#000000;stroke-width:0" /><path
           id="path12216"
           d="m 695.15,321.12 v 0.37 l -0.01,0.35 -0.02,0.35 -0.02,0.34 -0.07,0.65 -0.08,0.63 -0.12,0.59 -0.13,0.57 -0.16,0.54 -0.17,0.51 -0.19,0.49 -0.22,0.45 -0.23,0.44 -0.24,0.4 -0.26,0.38 -0.27,0.36 -0.29,0.33 -0.3,0.31 -0.31,0.29 -0.32,0.26 -0.32,0.24 -0.34,0.22 -0.34,0.2 -0.35,0.18 -0.35,0.16 -0.36,0.14 -0.36,0.12 -0.36,0.11 -0.36,0.09 -0.36,0.07 -0.36,0.05 -0.35,0.04 -0.36,0.02 -0.35,0.01 -0.04,-1.1 c 4.94,0 4.94,-6.53 4.94,-10.4 0,-1.85 0,-4.74 0.09,-5.58 v 0 c -4.38,-3.85 -8.22,-4.39 -10.21,-4.39 -3,0 -4.48,2.25 -4.48,5.43 0,2.44 1.3,7.82 2.89,10.36 2.33,3.64 5.03,4.58 6.77,4.58 l 0.04,1.1 c -6.81,0 -13.39,-7.13 -13.39,-14.15 0,-4.64 2.99,-8.42 8.07,-8.42 3.14,0 6.73,1.14 10.51,4.19 0.66,-2.64 2.3,-4.19 4.53,-4.19 2.64,0 4.19,2.74 4.19,3.53 0,0.36 -0.3,0.5 -0.59,0.5 -0.36,0 -0.5,-0.14 -0.66,-0.5 -0.89,-2.43 -2.69,-2.43 -2.78,-2.43 -1.55,0 -1.55,3.89 -1.55,5.07 0,1.05 0,1.16 0.5,1.75 4.69,5.88 5.74,11.66 5.74,11.71 0,0.11 -0.07,0.5 -0.61,0.5 -0.5,0 -0.5,-0.14 -0.75,-1.05 -0.89,-3.14 -2.53,-6.92 -4.88,-9.86 z"
           inkscape:connector-curvature="0"
           style="fill:#000000;stroke-width:0" /><path
           id="path12218"
           d="m 713.67,343.81 0.02,0.06 0.03,0.05 0.02,0.05 0.02,0.05 0.02,0.04 0.02,0.05 0.02,0.04 0.02,0.04 0.01,0.05 0.01,0.04 0.02,0.03 0.01,0.04 0.01,0.04 0.01,0.03 0.01,0.04 0.01,0.03 0.01,0.03 v 0.03 l 0.01,0.03 0.01,0.03 v 0.03 0.03 l 0.01,0.03 v 0.02 l 0.01,0.06 v 0.05 0.04 0.05 c 0,1.08 -0.98,1.92 -2.06,1.92 -1.33,0 -1.74,-1.09 -1.91,-1.64 l -4.61,-15.09 c -0.03,-0.06 -0.17,-0.52 -0.17,-0.56 0,-0.41 1.08,-0.77 1.36,-0.77 0.25,0 0.28,0.08 0.51,0.6 z"
           inkscape:connector-curvature="0"
           style="fill:#000000;stroke-width:0" /><path
           id="path12220"
           d="m 731.87,321.81 v 0.37 l -0.01,0.39 v 0.39 l -0.02,0.41 -0.04,0.84 -0.06,0.88 -0.08,0.92 -0.11,0.95 -0.13,0.97 -0.16,1.01 -0.2,1.02 -0.23,1.03 -0.27,1.05 -0.3,1.06 -0.35,1.07 -0.39,1.07 -0.22,0.53 -0.22,0.53 -0.24,0.53 -0.25,0.53 c -2.99,6.12 -7.27,9.36 -7.77,9.36 -0.29,0 -0.5,-0.19 -0.5,-0.49 0,-0.15 0,-0.25 0.94,-1.15 4.89,-4.92 7.74,-12.85 7.74,-23.27 0,-8.51 -1.85,-17.28 -8.03,-23.56 -0.65,-0.59 -0.65,-0.7 -0.65,-0.84 0,-0.3 0.21,-0.5 0.5,-0.5 0.5,0 4.97,3.39 7.93,9.71 2.53,5.47 3.12,11 3.12,15.19 z"
           inkscape:connector-curvature="0"
           style="fill:#000000;stroke-width:0" /><path
           id="path12222"
           d="m 783.8,321.81 h -1.25 c 0,-8.56 -6.96,-15.34 -15.34,-15.34 v 0 c -8.56,0 -15.39,6.92 -15.39,15.34 0,8.58 6.97,15.35 15.34,15.35 8.58,0 15.39,-6.93 15.39,-15.35 h 1.25 c 0,9.17 -7.46,16.6 -16.59,16.6 -9.26,0 -16.64,-7.53 -16.64,-16.6 0,-9.17 7.48,-16.59 16.59,-16.59 9.27,0 16.64,7.53 16.64,16.59 z"
           inkscape:connector-curvature="0"
           style="fill:#000000;stroke-width:0" /><path
           id="path12224"
           d="m 770.6,321.81 v 0.18 l -0.02,0.17 -0.02,0.17 -0.03,0.17 -0.04,0.17 -0.04,0.16 -0.06,0.16 -0.06,0.16 -0.07,0.15 -0.07,0.15 -0.09,0.14 -0.08,0.14 -0.1,0.14 -0.1,0.13 -0.11,0.12 -0.11,0.12 -0.12,0.11 -0.12,0.11 -0.13,0.1 -0.14,0.1 -0.13,0.09 -0.15,0.08 -0.14,0.08 -0.15,0.07 -0.15,0.06 -0.16,0.05 -0.16,0.05 -0.16,0.04 -0.17,0.03 -0.17,0.02 -0.17,0.02 h -0.17 c -1.98,0 -3.44,-1.64 -3.44,-3.44 0,-1.89 1.55,-3.43 3.39,-3.43 2,0 3.44,1.64 3.44,3.43 z"
           inkscape:connector-curvature="0"
           style="fill:#000000;stroke-width:0" /><path
           id="path12226"
           d="m 814.87,321.61 5.83,6.48 c 0.65,0.71 0.95,1.05 5.09,1.05 v 2.34 c -1.75,-0.1 -4.34,-0.15 -4.59,-0.15 -1.25,0 -3.74,0.11 -5.13,0.15 v -2.34 c 0.69,0 1.3,-0.11 1.89,-0.45 -0.2,-0.3 -0.2,-0.39 -0.41,-0.6 l -4.17,-4.68 -4.89,5.73 h 2 v 2.34 c -1.29,-0.04 -4.44,-0.15 -6.03,-0.15 -1.59,0 -3.84,0.11 -5.48,0.15 v -2.34 h 3.53 l 7.78,-9.17 -6.53,-7.33 c -0.85,-0.94 -2.64,-0.94 -5.03,-0.94 v -2.34 c 1.75,0.09 4.34,0.16 4.57,0.16 1.25,0 4.15,-0.11 5.15,-0.16 v 2.34 c -0.9,0 -1.85,0.25 -1.85,0.55 0,0.05 0,0.09 0.35,0.5 l 4.84,5.42 5.47,-6.47 h -1.94 v -2.34 c 1.3,0.05 4.33,0.16 5.98,0.16 1.6,0 3.83,-0.11 5.47,-0.16 v 2.34 h -3.53 z"
           inkscape:connector-curvature="0"
           style="fill:#000000;stroke-width:0" /><path
           id="path12228"
           d="m 840.25,361.3 -0.6,-0.44 -0.58,-0.47 -0.55,-0.47 -0.53,-0.49 -0.5,-0.5 -0.47,-0.51 -0.45,-0.53 -0.42,-0.53 -0.4,-0.54 -0.37,-0.55 -0.36,-0.56 -0.33,-0.56 -0.31,-0.57 -0.28,-0.57 -0.27,-0.58 -0.25,-0.58 -0.23,-0.58 -0.2,-0.58 -0.19,-0.59 -0.18,-0.58 -0.15,-0.58 -0.14,-0.58 -0.13,-0.57 -0.1,-0.57 -0.1,-0.57 -0.08,-0.56 -0.06,-0.55 -0.05,-0.54 -0.04,-0.54 -0.03,-0.53 -0.02,-0.51 v -0.51 c 0,-4.92 1.47,-12.55 8.37,-17.42 0.28,0 0.69,0 0.69,0.4 0,0.22 -0.09,0.29 -0.34,0.54 -4.64,4.18 -6.35,10.11 -6.35,16.45 0,9.41 3.6,14 6.46,16.58 0.14,0.14 0.23,0.25 0.23,0.42 0,0.42 -0.41,0.42 -0.69,0.42 z"
           inkscape:connector-curvature="0"
           style="fill:#000000;stroke-width:0" /><path
           id="path12230"
           d="m 854.77,356.94 v 0.05 0.06 l -0.01,0.05 -0.01,0.06 -0.01,0.05 -0.01,0.06 -0.02,0.05 -0.02,0.06 -0.02,0.06 -0.02,0.05 -0.03,0.06 -0.03,0.05 -0.04,0.06 -0.03,0.05 -0.04,0.05 -0.04,0.05 -0.04,0.05 -0.05,0.05 -0.05,0.04 -0.06,0.04 -0.05,0.04 -0.06,0.04 -0.06,0.04 -0.07,0.03 -0.07,0.03 -0.07,0.02 -0.07,0.03 -0.08,0.02 -0.08,0.01 -0.08,0.01 -0.09,0.01 h -0.09 c -0.94,0 -1.96,-0.91 -1.96,-1.92 0,-0.6 0.46,-1.33 1.41,-1.33 1,0 1.95,0.98 1.95,1.92 z"
           inkscape:connector-curvature="0"
           style="fill:#000000;stroke-width:0" /><path
           id="path12232"
           d="m 847.66,339.24 -0.05,-0.17 -0.05,-0.17 -0.03,-0.08 -0.03,-0.09 -0.02,-0.09 -0.02,-0.08 -0.03,-0.09 -0.02,-0.09 -0.01,-0.1 -0.02,-0.09 -0.01,-0.1 -0.01,-0.05 v -0.06 -0.05 l -0.01,-0.05 v -0.05 -0.06 c 0,-1.64 1.39,-2.95 3.3,-2.95 3.48,0 5.03,4.79 5.03,5.32 0,0.46 -0.45,0.46 -0.56,0.46 -0.49,0 -0.53,-0.21 -0.67,-0.6 -0.8,-2.78 -2.33,-4.21 -3.69,-4.21 -0.71,0 -0.88,0.45 -0.88,1.21 0,0.8 0.25,1.47 0.57,2.24 0.34,0.94 0.73,1.87 1.1,2.78 0.32,0.84 1.58,4.02 1.72,4.44 0.1,0.34 0.21,0.76 0.21,1.11 0,1.64 -1.39,2.95 -3.32,2.95 -3.45,0 -5.04,-4.73 -5.04,-5.33 0,-0.45 0.48,-0.45 0.59,-0.45 0.49,0 0.52,0.17 0.63,0.56 0.9,3 2.43,4.25 3.71,4.25 0.57,0 0.88,-0.28 0.88,-1.22 0,-0.79 -0.2,-1.33 -1.08,-3.48 z"
           inkscape:connector-curvature="0"
           style="fill:#000000;stroke-width:0" /><path
           id="path12234"
           d="m 860.66,361.3 h -0.03 -0.02 -0.03 -0.02 -0.03 -0.03 -0.03 l -0.02,-0.01 h -0.03 -0.03 l -0.03,-0.01 h -0.03 l -0.02,-0.01 h -0.03 l -0.03,-0.01 -0.02,-0.01 -0.03,-0.01 -0.02,-0.01 -0.03,-0.02 -0.02,-0.01 -0.02,-0.02 -0.02,-0.02 -0.02,-0.02 -0.01,-0.01 -0.01,-0.01 v -0.01 l -0.01,-0.01 -0.01,-0.01 -0.01,-0.02 v -0.01 l -0.01,-0.01 v -0.02 L 860,361.02 V 361 l -0.01,-0.01 v -0.02 -0.02 -0.01 -0.02 l -0.01,-0.02 v -0.02 c 0,-0.17 0.11,-0.28 0.32,-0.53 3,-2.75 6.34,-7.46 6.34,-16.44 0,-7.28 -2.26,-12.8 -6.03,-16.2 -0.58,-0.6 -0.63,-0.63 -0.63,-0.82 0,-0.17 0.11,-0.4 0.46,-0.4 0.42,0 3.73,2.3 6.03,6.65 1.53,2.9 2.55,6.66 2.55,10.74 0,4.91 -1.47,12.53 -8.36,17.42 z"
           inkscape:connector-curvature="0"
           style="fill:#000000;stroke-width:0" /><path
           id="path12236"
           d="M 836.46,310.77 H 840 c 0.66,0 1.11,0 1.11,0.76 0,0.49 -0.45,0.49 -1.03,0.49 h -3.31 l 1.28,5.15 c 0.03,0.17 0.11,0.35 0.11,0.49 0,0.64 -0.48,1.12 -1.19,1.12 -0.87,0 -1.39,-0.59 -1.64,-1.5 -0.23,-0.87 0.22,0.8 -1.33,-5.26 h -3.54 c -0.66,0 -1.11,0 -1.11,-0.77 0,-0.48 0.4,-0.48 1.05,-0.48 h 3.29 l -2.04,-8.22 c -0.22,-0.88 -0.54,-2.13 -0.54,-2.58 0,-2.06 1.75,-3.31 3.74,-3.31 3.87,0 6.06,4.87 6.06,5.32 0,0.46 -0.45,0.46 -0.56,0.46 -0.41,0 -0.45,-0.08 -0.72,-0.66 -0.98,-2.2 -2.77,-4.16 -4.67,-4.16 -0.74,0 -1.22,0.46 -1.22,1.71 0,0.36 0.14,1.09 0.2,1.44 z"
           inkscape:connector-curvature="0"
           style="fill:#000000;stroke-width:0" /></g>    </g>
  </g>
  <g
     inkscape:groupmode="layer"
     id="layer2"
     inkscape:label="Layer 2">
    <text
       xml:space="preserve"
       style="font-style:normal;font-weight:normal;font-size:6.00347757px;line-height:1.25;font-family:sans-serif;letter-spacing:0px;word-spacing:0px;fill:#000000;fill-opacity:1;stroke:none;stroke-width:0.15008692"
       x="74.645767"
       y="49.675678"
       id="text888-7-2-2-7-2"
       transform="scale(0.99750932,1.0024969)"><tspan
         sodipodi:role="line"
         x="74.645767"
         y="49.675678"
         style="font-style:normal;font-variant:normal;font-weight:normal;font-stretch:normal;font-size:2.82222222px;line-height:1.03860009px;font-family:'TeX Gyre Adventor';-inkscape-font-specification:'TeX Gyre Adventor, Normal';font-variant-ligatures:normal;font-variant-caps:normal;font-variant-numeric:normal;font-feature-settings:normal;text-align:center;word-spacing:0px;writing-mode:lr-tb;text-anchor:middle;stroke-width:0.15008692"
         rotate="0 0 0 0 0 0 0 0 0 0 0 0 0 0 0 0 0 0 0 0 0 0 0"
         id="tspan1458-5-7">Adaptive</tspan><tspan
         sodipodi:role="line"
         x="74.645767"
         y="57.180027"
         style="font-style:normal;font-variant:normal;font-weight:normal;font-stretch:normal;font-size:2.82222222px;line-height:1.03860009px;font-family:'TeX Gyre Adventor';-inkscape-font-specification:'TeX Gyre Adventor, Normal';font-variant-ligatures:normal;font-variant-caps:normal;font-variant-numeric:normal;font-feature-settings:normal;text-align:center;word-spacing:0px;writing-mode:lr-tb;text-anchor:middle;stroke-width:0.15008692"
         rotate="0 0 0 0 0 0 0 0 0 0 0 0 0 0 0 0 0 0 0 0 0 0 0 0 0 0 0 0 0 0 0"
         id="tspan2910-4"
         dy="-4.6348453">Shifting</tspan></text>
    <text
       transform="scale(0.99750932,1.0024969)"
       id="text1286"
       y="49.609028"
       x="102.91175"
       style="font-style:normal;font-weight:normal;font-size:6.00347757px;line-height:1.25;font-family:sans-serif;letter-spacing:0px;word-spacing:0px;fill:#000000;fill-opacity:1;stroke:none;stroke-width:0.15008692"
       xml:space="preserve"><tspan
         id="tspan1282"
         rotate="0 0 0 0 0 0 0 0 0 0 0 0 0 0 0 0 0 0 0 0 0 0 0"
         style="font-style:normal;font-variant:normal;font-weight:normal;font-stretch:normal;font-size:2.82222222px;line-height:1.03860009px;font-family:'TeX Gyre Adventor';-inkscape-font-specification:'TeX Gyre Adventor, Normal';font-variant-ligatures:normal;font-variant-caps:normal;font-variant-numeric:normal;font-feature-settings:normal;text-align:center;word-spacing:0px;writing-mode:lr-tb;text-anchor:middle;stroke-width:0.15008692"
         y="49.609028"
         x="102.91175"
         sodipodi:role="line">Adaptive</tspan><tspan
         dy="-4.6348453"
         id="tspan1284"
         rotate="0 0 0 0 0 0 0 0 0 0 0 0 0 0 0 0 0 0 0 0 0 0 0 0 0 0 0 0 0 0"
         style="font-style:normal;font-variant:normal;font-weight:normal;font-stretch:normal;font-size:2.82222222px;line-height:1.03860009px;font-family:'TeX Gyre Adventor';-inkscape-font-specification:'TeX Gyre Adventor, Normal';font-variant-ligatures:normal;font-variant-caps:normal;font-variant-numeric:normal;font-feature-settings:normal;text-align:center;word-spacing:0px;writing-mode:lr-tb;text-anchor:middle;stroke-width:0.15008692"
         y="57.113377"
         x="102.91175"
         sodipodi:role="line">Scaling</tspan></text>
    <text
       xml:space="preserve"
       style="font-style:normal;font-weight:normal;font-size:7.61078215px;line-height:1.25;font-family:sans-serif;letter-spacing:0px;word-spacing:0px;fill:#000000;fill-opacity:1;stroke:none;stroke-width:0.19026954"
       x="146.14842"
       y="47.335518"
       id="text2970"><tspan
         sodipodi:role="line"
         x="146.14842"
         y="47.335518"
         style="font-style:normal;font-variant:normal;font-weight:normal;font-stretch:normal;font-size:2.82222223px;line-height:1.31666338px;font-family:'TeX Gyre Adventor';-inkscape-font-specification:'TeX Gyre Adventor, Normal';font-variant-ligatures:normal;font-variant-caps:normal;font-variant-numeric:normal;font-feature-settings:normal;text-align:center;word-spacing:0px;writing-mode:lr-tb;text-anchor:middle;stroke-width:0.19026954"
         rotate="0 0 0 0 0 0 0 0 0 0 0 0 0 0 0 0 0 0 0 0 0 0 0"
         id="tspan2966">Adaptive</tspan><tspan
         sodipodi:role="line"
         x="146.14842"
         y="56.848995"
         style="font-style:normal;font-variant:normal;font-weight:normal;font-stretch:normal;font-size:2.82222223px;line-height:1.31666338px;font-family:'TeX Gyre Adventor';-inkscape-font-specification:'TeX Gyre Adventor, Normal';font-variant-ligatures:normal;font-variant-caps:normal;font-variant-numeric:normal;font-feature-settings:normal;text-align:center;word-spacing:0px;writing-mode:lr-tb;text-anchor:middle;stroke-width:0.19026954"
         id="tspan2968"
         dy="-5.8200002">Power</tspan><tspan
         sodipodi:role="line"
         x="146.14842"
         y="66.362473"
         style="font-style:normal;font-variant:normal;font-weight:normal;font-stretch:normal;font-size:2.82222223px;line-height:0px;font-family:'TeX Gyre Adventor';-inkscape-font-specification:'TeX Gyre Adventor, Normal';font-variant-ligatures:normal;font-variant-caps:normal;font-variant-numeric:normal;font-feature-settings:normal;text-align:center;word-spacing:0px;writing-mode:lr-tb;text-anchor:middle;stroke-width:0.19026954"
         rotate="0 0 0 0 0 0 0 0 0 0 0 0 0 0 0 0 0 0 0 0 0 0 0 0 0 0 0 0 0 0 0 0"
         id="tspan1291"
         dy="-12.03">Transform</tspan></text>
    <text
       id="text1299"
       y="48.393852"
       x="29.731756"
       style="font-style:normal;font-weight:normal;font-size:7.61078215px;line-height:1.25;font-family:sans-serif;letter-spacing:0px;word-spacing:0px;fill:#000000;fill-opacity:1;stroke:none;stroke-width:0.19026954"
       xml:space="preserve"><tspan
         id="tspan1295"
         style="font-style:normal;font-variant:normal;font-weight:normal;font-stretch:normal;font-size:2.82222223px;line-height:1.31666338px;font-family:'TeX Gyre Adventor';-inkscape-font-specification:'TeX Gyre Adventor, Normal';font-variant-ligatures:normal;font-variant-caps:normal;font-variant-numeric:normal;font-feature-settings:normal;text-align:center;word-spacing:0px;writing-mode:lr-tb;text-anchor:middle;stroke-width:0.19026954"
         y="48.393852"
         x="29.731756"
         sodipodi:role="line"><tspan
           rotate="0 0 0 0 0 0 0 0 0 0 0 0 0 0 0 0 0 0 0 0 0 0 0"
           id="tspan1301"
           style="font-style:normal;font-variant:normal;font-weight:normal;font-stretch:normal;font-size:2.82222223px;line-height:1.31666338px;font-family:'TeX Gyre Adventor';-inkscape-font-specification:'TeX Gyre Adventor, Normal';font-variant-ligatures:normal;font-variant-caps:normal;font-variant-numeric:normal;font-feature-settings:normal;text-align:center;word-spacing:0px;writing-mode:lr-tb;text-anchor:middle;stroke-width:0.19026954">Adaptive</tspan></tspan><tspan
         style="font-style:normal;font-variant:normal;font-weight:normal;font-stretch:normal;font-size:2.82222223px;line-height:1.31666338px;font-family:'TeX Gyre Adventor';-inkscape-font-specification:'TeX Gyre Adventor, Normal';font-variant-ligatures:normal;font-variant-caps:normal;font-variant-numeric:normal;font-feature-settings:normal;text-align:center;word-spacing:0px;writing-mode:lr-tb;text-anchor:middle;stroke-width:0.19026954"
         y="57.90733"
         x="29.731756"
         sodipodi:role="line"
         id="tspan1303"
         dy="-6.5700002">Outlier</tspan><tspan
         id="tspan1297"
         rotate="0 0 0 0 0 0 0 0 0 0 0 0 0 0 0 0 0 0 0 0 0 0 0 0 0 0 0 0 0 0"
         style="font-style:normal;font-variant:normal;font-weight:normal;font-stretch:normal;font-size:2.82222223px;line-height:0px;font-family:'TeX Gyre Adventor';-inkscape-font-specification:'TeX Gyre Adventor, Normal';font-variant-ligatures:normal;font-variant-caps:normal;font-variant-numeric:normal;font-feature-settings:normal;text-align:center;word-spacing:0px;writing-mode:lr-tb;text-anchor:middle;stroke-width:0.19026954"
         y="67.420807"
         x="29.731756"
         sodipodi:role="line"
         dy="-13.249998">Removal</tspan></text>
    <text
       transform="scale(0.99750932,1.0024969)"
       id="text1309"
       y="70.789627"
       x="74.645767"
       style="font-style:normal;font-weight:normal;font-size:6.00347757px;line-height:1.25;font-family:sans-serif;letter-spacing:0px;word-spacing:0px;fill:#000000;fill-opacity:1;stroke:none;stroke-width:0.15008692"
       xml:space="preserve"><tspan
         id="tspan1307"
         rotate="0 0 0 0 0 0 0 0 0 0 0 0 0 0 0 0 0 0 0 0 0 0 0 0 0 0 0 0 0 0"
         style="font-style:normal;font-variant:normal;font-weight:normal;font-stretch:normal;font-size:2.82222223px;line-height:1.03860009px;font-family:'TeX Gyre Adventor';-inkscape-font-specification:'TeX Gyre Adventor, Normal';font-variant-ligatures:normal;font-variant-caps:normal;font-variant-numeric:normal;font-feature-settings:normal;text-align:center;word-spacing:0px;writing-mode:lr-tb;text-anchor:middle;stroke-width:0.15008692"
         y="70.789627"
         x="74.645767"
         sodipodi:role="line">Summary</tspan><tspan
         rotate="0 0 0 0 0 0 0 0 0 0 0 0 0 0 0 0 0 0 0 0 0 0 0 0 0 0 0 0 0 0 0 0 0 0 0 0 0 0 0 0"
         style="font-style:normal;font-variant:normal;font-weight:normal;font-stretch:normal;font-size:2.82222223px;line-height:1.03860009px;font-family:'TeX Gyre Adventor';-inkscape-font-specification:'TeX Gyre Adventor, Normal';font-variant-ligatures:normal;font-variant-caps:normal;font-variant-numeric:normal;font-feature-settings:normal;text-align:center;word-spacing:0px;writing-mode:lr-tb;text-anchor:middle;stroke-width:0.15008692"
         y="78.293976"
         x="74.645767"
         sodipodi:role="line"
         id="tspan1313"
         dy="-4.6900001">Aggregator</tspan></text>
    <text
       xml:space="preserve"
       style="font-style:normal;font-weight:normal;font-size:6.00347757px;line-height:1.25;font-family:sans-serif;letter-spacing:0px;word-spacing:0px;fill:#000000;fill-opacity:1;stroke:none;stroke-width:0.15008692"
       x="102.76162"
       y="70.789627"
       id="text1323"
       transform="scale(0.99750932,1.0024969)"><tspan
         sodipodi:role="line"
         x="102.76162"
         y="70.789627"
         style="font-style:normal;font-variant:normal;font-weight:normal;font-stretch:normal;font-size:2.82222223px;line-height:1.03860009px;font-family:'TeX Gyre Adventor';-inkscape-font-specification:'TeX Gyre Adventor, Normal';font-variant-ligatures:normal;font-variant-caps:normal;font-variant-numeric:normal;font-feature-settings:normal;text-align:center;word-spacing:0px;writing-mode:lr-tb;text-anchor:middle;stroke-width:0.15008692"
         rotate="0 0 0 0 0 0 0 0 0 0 0 0 0 0 0 0 0 0 0 0 0 0 0 0 0 0 0 0 0 0"
         id="tspan1319">Summary</tspan><tspan
         dy="-4.6900001"
         id="tspan1321"
         sodipodi:role="line"
         x="102.76162"
         y="78.293976"
         style="font-style:normal;font-variant:normal;font-weight:normal;font-stretch:normal;font-size:2.82222223px;line-height:1.03860009px;font-family:'TeX Gyre Adventor';-inkscape-font-specification:'TeX Gyre Adventor, Normal';font-variant-ligatures:normal;font-variant-caps:normal;font-variant-numeric:normal;font-feature-settings:normal;text-align:center;word-spacing:0px;writing-mode:lr-tb;text-anchor:middle;stroke-width:0.15008692"
         rotate="0 0 0 0 0 0 0 0 0 0 0 0 0 0 0 0 0 0 0 0 0 0 0 0 0 0 0 0 0 0 0 0 0 0 0 0 0 0 0 0">Aggregator</tspan></text>
  </g>
</svg>
